<mxfile host="Electron" modified="2024-05-21T01:35:38.584Z" agent="Mozilla/5.0 (Windows NT 10.0; Win64; x64) AppleWebKit/537.36 (KHTML, like Gecko) draw.io/24.4.0 Chrome/120.0.6099.109 Electron/28.1.0 Safari/537.36" etag="XbsDq7RnUjse_6gLRTsk" version="24.4.0" type="device">
  <diagram name="Page-1" id="KZN-zyBD-0XipZeYQRDT">
    <mxGraphModel dx="687" dy="397" grid="1" gridSize="10" guides="1" tooltips="1" connect="1" arrows="1" fold="1" page="1" pageScale="1" pageWidth="500" pageHeight="200" math="0" shadow="0">
      <root>
        <mxCell id="0" />
        <mxCell id="1" parent="0" />
        <mxCell id="BZf6F3fDbPlMnJJBv7aN-2" value="" style="group" vertex="1" connectable="0" parent="1">
          <mxGeometry x="9" y="56" width="482.6" height="88.90000000000003" as="geometry" />
        </mxCell>
        <mxCell id="9eh16xiQdjSHdPkHuFP6-378" value="" style="rounded=0;whiteSpace=wrap;html=1;strokeColor=#aaaaaa;fillColor=#bfbfbf;strokeWidth=1;container=0;part=1;movable=1;resizable=1;rotatable=1;deletable=1;editable=1;locked=0;connectable=1;" parent="BZf6F3fDbPlMnJJBv7aN-2" vertex="1">
          <mxGeometry width="482.6" height="88.9" as="geometry" />
        </mxCell>
        <mxCell id="9eh16xiQdjSHdPkHuFP6-379" value="" style="rounded=0;whiteSpace=wrap;html=1;strokeColor=#aaaaaa;fillColor=#222222;strokeWidth=1;movable=1;resizable=1;rotatable=1;deletable=1;editable=1;locked=0;connectable=1;container=0;" parent="BZf6F3fDbPlMnJJBv7aN-2" vertex="1">
          <mxGeometry x="18" width="446.6" height="88.9" as="geometry" />
        </mxCell>
        <mxCell id="jP2WbbBxQBNUkDRbYnSl-230" value="" style="group" parent="BZf6F3fDbPlMnJJBv7aN-2" vertex="1" connectable="0">
          <mxGeometry x="3.996249999999975" y="63.68" width="10" height="6" as="geometry" />
        </mxCell>
        <mxCell id="jP2WbbBxQBNUkDRbYnSl-231" value="" style="rounded=0;whiteSpace=wrap;html=1;fillColor=#000000;fontColor=#ffffff;strokeColor=none;container=0;" parent="jP2WbbBxQBNUkDRbYnSl-230" vertex="1">
          <mxGeometry x="3" width="4" height="6" as="geometry" />
        </mxCell>
        <mxCell id="jP2WbbBxQBNUkDRbYnSl-232" value="" style="ellipse;whiteSpace=wrap;html=1;aspect=fixed;strokeColor=none;fillColor=#000000;" parent="jP2WbbBxQBNUkDRbYnSl-230" vertex="1">
          <mxGeometry x="4" width="6" height="6" as="geometry" />
        </mxCell>
        <mxCell id="jP2WbbBxQBNUkDRbYnSl-233" value="" style="ellipse;whiteSpace=wrap;html=1;aspect=fixed;strokeColor=none;fillColor=#000000;" parent="jP2WbbBxQBNUkDRbYnSl-230" vertex="1">
          <mxGeometry width="6" height="6" as="geometry" />
        </mxCell>
        <mxCell id="5G7c4jUEA5Og9TPHIXhp-406" value="" style="group" parent="BZf6F3fDbPlMnJJBv7aN-2" vertex="1" connectable="0">
          <mxGeometry x="19.83" y="61.010754716981154" width="442.95" height="26.179245283018872" as="geometry" />
        </mxCell>
        <mxCell id="5G7c4jUEA5Og9TPHIXhp-407" value="" style="rounded=0;whiteSpace=wrap;html=1;strokeColor=none;fillColor=#333333;strokeWidth=0.5;movable=1;resizable=1;rotatable=1;deletable=1;editable=1;locked=0;connectable=1;container=0;" parent="5G7c4jUEA5Og9TPHIXhp-406" vertex="1">
          <mxGeometry width="109.95212765957447" height="26.179245283018872" as="geometry" />
        </mxCell>
        <mxCell id="5G7c4jUEA5Og9TPHIXhp-408" value="" style="rounded=0;whiteSpace=wrap;html=1;strokeColor=#222222;fillColor=#222222;strokeWidth=0.5;movable=1;resizable=1;rotatable=1;deletable=1;editable=1;locked=0;connectable=1;container=0;" parent="5G7c4jUEA5Og9TPHIXhp-406" vertex="1">
          <mxGeometry x="3.141489361702128" y="3.1415094339622556" width="101.57482269503546" height="19.89622641509434" as="geometry" />
        </mxCell>
        <mxCell id="5G7c4jUEA5Og9TPHIXhp-409" value="" style="rounded=1;whiteSpace=wrap;html=1;strokeColor=#222222;rotation=0;fillColor=#60a917;fontColor=#ffffff;movable=1;resizable=1;rotatable=1;deletable=1;editable=1;locked=0;connectable=1;container=0;direction=south;strokeWidth=0.1;" parent="5G7c4jUEA5Og9TPHIXhp-406" vertex="1">
          <mxGeometry x="105.76347517730497" y="20.943396226415075" width="3.141489361702128" height="4.188679245283019" as="geometry" />
        </mxCell>
        <mxCell id="5G7c4jUEA5Og9TPHIXhp-410" value="" style="rounded=1;whiteSpace=wrap;html=1;strokeColor=#222222;rotation=0;fillColor=#0050ef;fontColor=#ffffff;movable=1;resizable=1;rotatable=1;deletable=1;editable=1;locked=0;connectable=1;container=0;direction=south;strokeWidth=0.1;" parent="5G7c4jUEA5Og9TPHIXhp-406" vertex="1">
          <mxGeometry x="105.76347517730497" y="11.51886792452828" width="3.141489361702128" height="4.188679245283019" as="geometry" />
        </mxCell>
        <mxCell id="5G7c4jUEA5Og9TPHIXhp-411" value="" style="rounded=1;whiteSpace=wrap;html=1;strokeColor=none;fillColor=#0050ef;strokeWidth=0.5;fontColor=#ffffff;glass=0;movable=1;resizable=1;rotatable=1;deletable=1;editable=1;locked=0;connectable=1;container=0;" parent="5G7c4jUEA5Og9TPHIXhp-406" vertex="1">
          <mxGeometry x="78.5372340425532" y="6.283018867924511" width="8.377304964539007" height="13.613207547169813" as="geometry" />
        </mxCell>
        <mxCell id="5G7c4jUEA5Og9TPHIXhp-412" value="" style="shape=or;whiteSpace=wrap;html=1;fillColor=#0050ef;fontColor=#ffffff;strokeColor=none;movable=1;resizable=1;rotatable=1;deletable=1;editable=1;locked=0;connectable=1;container=0;" parent="5G7c4jUEA5Og9TPHIXhp-406" vertex="1">
          <mxGeometry x="85.86737588652483" y="6.283018867924511" width="3.141489361702128" height="13.613207547169813" as="geometry" />
        </mxCell>
        <mxCell id="5G7c4jUEA5Og9TPHIXhp-413" value="" style="sketch=0;html=1;strokeColor=#222222;shadow=0;fillColor=none;verticalAlign=top;labelPosition=center;verticalLabelPosition=bottom;shape=mxgraph.gcp2.a7_power;gradientColor=none;strokeWidth=0.1;movable=1;resizable=1;rotatable=1;deletable=1;editable=1;locked=0;connectable=1;container=0;" parent="5G7c4jUEA5Og9TPHIXhp-406" vertex="1">
          <mxGeometry x="105.76347517730497" y="7.330188679245282" width="3.141489361702128" height="3.1415094339622645" as="geometry" />
        </mxCell>
        <mxCell id="5G7c4jUEA5Og9TPHIXhp-414" value="" style="strokeWidth=0.1;html=1;shape=mxgraph.flowchart.database;whiteSpace=wrap;strokeColor=#222222;fillColor=none;movable=1;resizable=1;rotatable=1;deletable=1;editable=1;locked=0;connectable=1;container=0;" parent="5G7c4jUEA5Og9TPHIXhp-406" vertex="1">
          <mxGeometry x="105.76347517730497" y="16.754716981132077" width="3.141489361702128" height="3.1415094339622645" as="geometry" />
        </mxCell>
        <mxCell id="5G7c4jUEA5Og9TPHIXhp-415" value="" style="rounded=0;whiteSpace=wrap;html=1;strokeColor=none;fillColor=#333333;strokeWidth=0.5;movable=1;resizable=1;rotatable=1;deletable=1;editable=1;locked=0;connectable=1;container=0;" parent="5G7c4jUEA5Og9TPHIXhp-406" vertex="1">
          <mxGeometry x="3.141489361702128" y="3.1415094339622556" width="80.63156028368795" height="19.89622641509434" as="geometry" />
        </mxCell>
        <mxCell id="5G7c4jUEA5Og9TPHIXhp-416" value="" style="rounded=0;whiteSpace=wrap;html=1;strokeColor=none;fillColor=#2D2D2D;strokeWidth=0.2;movable=1;resizable=1;rotatable=1;deletable=1;editable=1;locked=0;connectable=1;container=0;" parent="5G7c4jUEA5Og9TPHIXhp-406" vertex="1">
          <mxGeometry x="69.11276595744681" y="5.759433962264154" width="4.188652482269504" height="14.660377358490567" as="geometry" />
        </mxCell>
        <mxCell id="5G7c4jUEA5Og9TPHIXhp-417" value="" style="rounded=0;whiteSpace=wrap;html=1;strokeColor=none;fillColor=#2D2D2D;strokeWidth=0.2;movable=1;resizable=1;rotatable=1;deletable=1;editable=1;locked=0;connectable=1;container=0;" parent="5G7c4jUEA5Og9TPHIXhp-406" vertex="1">
          <mxGeometry x="9.424468085106383" y="5.759433962264154" width="4.188652482269504" height="14.660377358490567" as="geometry" />
        </mxCell>
        <mxCell id="5G7c4jUEA5Og9TPHIXhp-418" value="" style="rounded=0;whiteSpace=wrap;html=1;strokeColor=none;fillColor=#222222;strokeWidth=0.2;movable=1;resizable=1;rotatable=1;deletable=1;editable=1;locked=0;connectable=1;container=0;" parent="5G7c4jUEA5Og9TPHIXhp-406" vertex="1">
          <mxGeometry x="13.613120567375887" y="5.759433962264154" width="55.499645390070924" height="2.0943396226415096" as="geometry" />
        </mxCell>
        <mxCell id="5G7c4jUEA5Og9TPHIXhp-419" value="" style="rounded=0;whiteSpace=wrap;html=1;strokeColor=none;fillColor=#222222;strokeWidth=0.2;movable=1;resizable=1;rotatable=1;deletable=1;editable=1;locked=0;connectable=1;container=0;" parent="5G7c4jUEA5Og9TPHIXhp-406" vertex="1">
          <mxGeometry x="13.613120567375887" y="9.948113207547152" width="55.499645390070924" height="2.0943396226415096" as="geometry" />
        </mxCell>
        <mxCell id="5G7c4jUEA5Og9TPHIXhp-420" value="" style="rounded=0;whiteSpace=wrap;html=1;strokeColor=none;fillColor=#222222;strokeWidth=0.2;movable=1;resizable=1;rotatable=1;deletable=1;editable=1;locked=0;connectable=1;container=0;" parent="5G7c4jUEA5Og9TPHIXhp-406" vertex="1">
          <mxGeometry x="13.613120567375887" y="14.136792452830178" width="55.499645390070924" height="2.0943396226415096" as="geometry" />
        </mxCell>
        <mxCell id="5G7c4jUEA5Og9TPHIXhp-421" value="" style="rounded=0;whiteSpace=wrap;html=1;strokeColor=none;fillColor=#222222;strokeWidth=0.2;movable=1;resizable=1;rotatable=1;deletable=1;editable=1;locked=0;connectable=1;container=0;" parent="5G7c4jUEA5Og9TPHIXhp-406" vertex="1">
          <mxGeometry x="13.613120567375887" y="18.325471698113205" width="55.499645390070924" height="2.0943396226415096" as="geometry" />
        </mxCell>
        <mxCell id="5G7c4jUEA5Og9TPHIXhp-422" value="" style="rounded=0;whiteSpace=wrap;html=1;strokeColor=none;fillColor=#2D2D2D;strokeWidth=0.2;movable=1;resizable=1;rotatable=1;deletable=1;editable=1;locked=0;connectable=1;container=0;" parent="5G7c4jUEA5Og9TPHIXhp-406" vertex="1">
          <mxGeometry x="30.367730496453902" y="5.759433962264154" width="2.094326241134752" height="14.660377358490567" as="geometry" />
        </mxCell>
        <mxCell id="5G7c4jUEA5Og9TPHIXhp-423" value="" style="rounded=0;whiteSpace=wrap;html=1;strokeColor=none;fillColor=#2D2D2D;strokeWidth=0.2;movable=1;resizable=1;rotatable=1;deletable=1;editable=1;locked=0;connectable=1;container=0;" parent="5G7c4jUEA5Og9TPHIXhp-406" vertex="1">
          <mxGeometry x="50.263829787234044" y="5.759433962264154" width="2.094326241134752" height="14.660377358490567" as="geometry" />
        </mxCell>
        <mxCell id="5G7c4jUEA5Og9TPHIXhp-424" value="" style="rounded=0;whiteSpace=wrap;html=1;strokeColor=none;fillColor=#333333;strokeWidth=0.5;movable=1;resizable=1;rotatable=1;deletable=1;editable=1;locked=0;connectable=1;container=0;" parent="5G7c4jUEA5Og9TPHIXhp-406" vertex="1">
          <mxGeometry x="13.613120567375887" y="16.23113207547169" width="55.499645390070924" height="2.0943396226415096" as="geometry" />
        </mxCell>
        <mxCell id="5G7c4jUEA5Og9TPHIXhp-425" value="" style="rounded=0;whiteSpace=wrap;html=1;strokeColor=none;fillColor=#333333;strokeWidth=0.5;movable=1;resizable=1;rotatable=1;deletable=1;editable=1;locked=0;connectable=1;container=0;" parent="5G7c4jUEA5Og9TPHIXhp-406" vertex="1">
          <mxGeometry x="13.613120567375887" y="12.042452830188665" width="55.499645390070924" height="2.0943396226415096" as="geometry" />
        </mxCell>
        <mxCell id="5G7c4jUEA5Og9TPHIXhp-426" value="" style="rounded=0;whiteSpace=wrap;html=1;strokeColor=none;fillColor=#333333;strokeWidth=0.5;movable=1;resizable=1;rotatable=1;deletable=1;editable=1;locked=0;connectable=1;container=0;" parent="5G7c4jUEA5Og9TPHIXhp-406" vertex="1">
          <mxGeometry x="13.613120567375887" y="7.853773584905639" width="55.499645390070924" height="2.0943396226415096" as="geometry" />
        </mxCell>
        <mxCell id="5G7c4jUEA5Og9TPHIXhp-427" value="" style="rounded=0;whiteSpace=wrap;html=1;strokeColor=none;fillColor=#333333;strokeWidth=0.5;movable=1;resizable=1;rotatable=1;deletable=1;editable=1;locked=0;connectable=1;container=0;" parent="5G7c4jUEA5Og9TPHIXhp-406" vertex="1">
          <mxGeometry x="110.99929078014183" width="109.95212765957447" height="26.179245283018872" as="geometry" />
        </mxCell>
        <mxCell id="5G7c4jUEA5Og9TPHIXhp-428" value="" style="rounded=0;whiteSpace=wrap;html=1;strokeColor=#222222;fillColor=#222222;strokeWidth=0.5;movable=1;resizable=1;rotatable=1;deletable=1;editable=1;locked=0;connectable=1;container=0;" parent="5G7c4jUEA5Og9TPHIXhp-406" vertex="1">
          <mxGeometry x="114.14078014184399" y="3.1415094339622556" width="101.57482269503546" height="19.89622641509434" as="geometry" />
        </mxCell>
        <mxCell id="5G7c4jUEA5Og9TPHIXhp-429" value="" style="rounded=1;whiteSpace=wrap;html=1;strokeColor=#222222;rotation=0;fillColor=#60a917;fontColor=#ffffff;movable=1;resizable=1;rotatable=1;deletable=1;editable=1;locked=0;connectable=1;container=0;direction=south;strokeWidth=0.1;" parent="5G7c4jUEA5Og9TPHIXhp-406" vertex="1">
          <mxGeometry x="216.76276595744685" y="20.943396226415075" width="3.141489361702128" height="4.188679245283019" as="geometry" />
        </mxCell>
        <mxCell id="5G7c4jUEA5Og9TPHIXhp-430" value="" style="rounded=1;whiteSpace=wrap;html=1;strokeColor=#222222;rotation=0;fillColor=#0050ef;fontColor=#ffffff;movable=1;resizable=1;rotatable=1;deletable=1;editable=1;locked=0;connectable=1;container=0;direction=south;strokeWidth=0.1;" parent="5G7c4jUEA5Og9TPHIXhp-406" vertex="1">
          <mxGeometry x="216.76276595744685" y="11.51886792452828" width="3.141489361702128" height="4.188679245283019" as="geometry" />
        </mxCell>
        <mxCell id="5G7c4jUEA5Og9TPHIXhp-431" value="" style="rounded=1;whiteSpace=wrap;html=1;strokeColor=none;fillColor=#0050ef;strokeWidth=0.5;fontColor=#ffffff;glass=0;movable=1;resizable=1;rotatable=1;deletable=1;editable=1;locked=0;connectable=1;container=0;" parent="5G7c4jUEA5Og9TPHIXhp-406" vertex="1">
          <mxGeometry x="189.53652482269507" y="6.283018867924511" width="8.377304964539007" height="13.613207547169813" as="geometry" />
        </mxCell>
        <mxCell id="5G7c4jUEA5Og9TPHIXhp-432" value="" style="shape=or;whiteSpace=wrap;html=1;fillColor=#0050ef;fontColor=#ffffff;strokeColor=none;movable=1;resizable=1;rotatable=1;deletable=1;editable=1;locked=0;connectable=1;container=0;" parent="5G7c4jUEA5Og9TPHIXhp-406" vertex="1">
          <mxGeometry x="196.86666666666667" y="6.283018867924511" width="3.141489361702128" height="13.613207547169813" as="geometry" />
        </mxCell>
        <mxCell id="5G7c4jUEA5Og9TPHIXhp-433" value="" style="sketch=0;html=1;strokeColor=#222222;shadow=0;fillColor=none;verticalAlign=top;labelPosition=center;verticalLabelPosition=bottom;shape=mxgraph.gcp2.a7_power;gradientColor=none;strokeWidth=0.1;movable=1;resizable=1;rotatable=1;deletable=1;editable=1;locked=0;connectable=1;container=0;" parent="5G7c4jUEA5Og9TPHIXhp-406" vertex="1">
          <mxGeometry x="216.76276595744685" y="7.330188679245282" width="3.141489361702128" height="3.1415094339622645" as="geometry" />
        </mxCell>
        <mxCell id="5G7c4jUEA5Og9TPHIXhp-434" value="" style="strokeWidth=0.1;html=1;shape=mxgraph.flowchart.database;whiteSpace=wrap;strokeColor=#222222;fillColor=none;movable=1;resizable=1;rotatable=1;deletable=1;editable=1;locked=0;connectable=1;container=0;" parent="5G7c4jUEA5Og9TPHIXhp-406" vertex="1">
          <mxGeometry x="216.76276595744685" y="16.754716981132077" width="3.141489361702128" height="3.1415094339622645" as="geometry" />
        </mxCell>
        <mxCell id="5G7c4jUEA5Og9TPHIXhp-435" value="" style="rounded=0;whiteSpace=wrap;html=1;strokeColor=none;fillColor=#333333;strokeWidth=0.5;movable=1;resizable=1;rotatable=1;deletable=1;editable=1;locked=0;connectable=1;container=0;" parent="5G7c4jUEA5Og9TPHIXhp-406" vertex="1">
          <mxGeometry x="114.14078014184399" y="3.1415094339622556" width="80.63156028368795" height="19.89622641509434" as="geometry" />
        </mxCell>
        <mxCell id="5G7c4jUEA5Og9TPHIXhp-436" value="" style="rounded=0;whiteSpace=wrap;html=1;strokeColor=none;fillColor=#2D2D2D;strokeWidth=0.2;movable=1;resizable=1;rotatable=1;deletable=1;editable=1;locked=0;connectable=1;container=0;" parent="5G7c4jUEA5Og9TPHIXhp-406" vertex="1">
          <mxGeometry x="180.11205673758866" y="5.759433962264154" width="4.188652482269504" height="14.660377358490567" as="geometry" />
        </mxCell>
        <mxCell id="5G7c4jUEA5Og9TPHIXhp-437" value="" style="rounded=0;whiteSpace=wrap;html=1;strokeColor=none;fillColor=#2D2D2D;strokeWidth=0.2;movable=1;resizable=1;rotatable=1;deletable=1;editable=1;locked=0;connectable=1;container=0;" parent="5G7c4jUEA5Og9TPHIXhp-406" vertex="1">
          <mxGeometry x="120.42375886524825" y="5.759433962264154" width="4.188652482269504" height="14.660377358490567" as="geometry" />
        </mxCell>
        <mxCell id="5G7c4jUEA5Og9TPHIXhp-438" value="" style="rounded=0;whiteSpace=wrap;html=1;strokeColor=none;fillColor=#222222;strokeWidth=0.2;movable=1;resizable=1;rotatable=1;deletable=1;editable=1;locked=0;connectable=1;container=0;" parent="5G7c4jUEA5Og9TPHIXhp-406" vertex="1">
          <mxGeometry x="124.61241134751775" y="5.759433962264154" width="55.499645390070924" height="2.0943396226415096" as="geometry" />
        </mxCell>
        <mxCell id="5G7c4jUEA5Og9TPHIXhp-439" value="" style="rounded=0;whiteSpace=wrap;html=1;strokeColor=none;fillColor=#222222;strokeWidth=0.2;movable=1;resizable=1;rotatable=1;deletable=1;editable=1;locked=0;connectable=1;container=0;" parent="5G7c4jUEA5Og9TPHIXhp-406" vertex="1">
          <mxGeometry x="124.61241134751775" y="9.948113207547152" width="55.499645390070924" height="2.0943396226415096" as="geometry" />
        </mxCell>
        <mxCell id="5G7c4jUEA5Og9TPHIXhp-440" value="" style="rounded=0;whiteSpace=wrap;html=1;strokeColor=none;fillColor=#222222;strokeWidth=0.2;movable=1;resizable=1;rotatable=1;deletable=1;editable=1;locked=0;connectable=1;container=0;" parent="5G7c4jUEA5Og9TPHIXhp-406" vertex="1">
          <mxGeometry x="124.61241134751775" y="14.136792452830178" width="55.499645390070924" height="2.0943396226415096" as="geometry" />
        </mxCell>
        <mxCell id="5G7c4jUEA5Og9TPHIXhp-441" value="" style="rounded=0;whiteSpace=wrap;html=1;strokeColor=none;fillColor=#222222;strokeWidth=0.2;movable=1;resizable=1;rotatable=1;deletable=1;editable=1;locked=0;connectable=1;container=0;" parent="5G7c4jUEA5Og9TPHIXhp-406" vertex="1">
          <mxGeometry x="124.61241134751775" y="18.325471698113205" width="55.499645390070924" height="2.0943396226415096" as="geometry" />
        </mxCell>
        <mxCell id="5G7c4jUEA5Og9TPHIXhp-442" value="" style="rounded=0;whiteSpace=wrap;html=1;strokeColor=none;fillColor=#2D2D2D;strokeWidth=0.2;movable=1;resizable=1;rotatable=1;deletable=1;editable=1;locked=0;connectable=1;container=0;" parent="5G7c4jUEA5Og9TPHIXhp-406" vertex="1">
          <mxGeometry x="141.36702127659578" y="5.759433962264154" width="2.094326241134752" height="14.660377358490567" as="geometry" />
        </mxCell>
        <mxCell id="5G7c4jUEA5Og9TPHIXhp-443" value="" style="rounded=0;whiteSpace=wrap;html=1;strokeColor=none;fillColor=#2D2D2D;strokeWidth=0.2;movable=1;resizable=1;rotatable=1;deletable=1;editable=1;locked=0;connectable=1;container=0;" parent="5G7c4jUEA5Og9TPHIXhp-406" vertex="1">
          <mxGeometry x="161.2631205673759" y="5.759433962264154" width="2.094326241134752" height="14.660377358490567" as="geometry" />
        </mxCell>
        <mxCell id="5G7c4jUEA5Og9TPHIXhp-444" value="" style="rounded=0;whiteSpace=wrap;html=1;strokeColor=none;fillColor=#333333;strokeWidth=0.5;movable=1;resizable=1;rotatable=1;deletable=1;editable=1;locked=0;connectable=1;container=0;" parent="5G7c4jUEA5Og9TPHIXhp-406" vertex="1">
          <mxGeometry x="124.61241134751775" y="16.23113207547169" width="55.499645390070924" height="2.0943396226415096" as="geometry" />
        </mxCell>
        <mxCell id="5G7c4jUEA5Og9TPHIXhp-445" value="" style="rounded=0;whiteSpace=wrap;html=1;strokeColor=none;fillColor=#333333;strokeWidth=0.5;movable=1;resizable=1;rotatable=1;deletable=1;editable=1;locked=0;connectable=1;container=0;" parent="5G7c4jUEA5Og9TPHIXhp-406" vertex="1">
          <mxGeometry x="124.61241134751775" y="12.042452830188665" width="55.499645390070924" height="2.0943396226415096" as="geometry" />
        </mxCell>
        <mxCell id="5G7c4jUEA5Og9TPHIXhp-446" value="" style="rounded=0;whiteSpace=wrap;html=1;strokeColor=none;fillColor=#333333;strokeWidth=0.5;movable=1;resizable=1;rotatable=1;deletable=1;editable=1;locked=0;connectable=1;container=0;" parent="5G7c4jUEA5Og9TPHIXhp-406" vertex="1">
          <mxGeometry x="124.61241134751775" y="7.853773584905639" width="55.499645390070924" height="2.0943396226415096" as="geometry" />
        </mxCell>
        <mxCell id="5G7c4jUEA5Og9TPHIXhp-447" value="" style="rounded=0;whiteSpace=wrap;html=1;strokeColor=none;fillColor=#333333;strokeWidth=0.5;movable=1;resizable=1;rotatable=1;deletable=1;editable=1;locked=0;connectable=1;container=0;" parent="5G7c4jUEA5Og9TPHIXhp-406" vertex="1">
          <mxGeometry x="221.9985815602837" width="109.95212765957447" height="26.179245283018872" as="geometry" />
        </mxCell>
        <mxCell id="5G7c4jUEA5Og9TPHIXhp-448" value="" style="rounded=0;whiteSpace=wrap;html=1;strokeColor=#222222;fillColor=#222222;strokeWidth=0.5;movable=1;resizable=1;rotatable=1;deletable=1;editable=1;locked=0;connectable=1;container=0;" parent="5G7c4jUEA5Og9TPHIXhp-406" vertex="1">
          <mxGeometry x="225.14007092198585" y="3.1415094339622556" width="101.57482269503546" height="19.89622641509434" as="geometry" />
        </mxCell>
        <mxCell id="5G7c4jUEA5Og9TPHIXhp-449" value="" style="rounded=1;whiteSpace=wrap;html=1;strokeColor=#222222;rotation=0;fillColor=#60a917;fontColor=#ffffff;movable=1;resizable=1;rotatable=1;deletable=1;editable=1;locked=0;connectable=1;container=0;direction=south;strokeWidth=0.1;" parent="5G7c4jUEA5Og9TPHIXhp-406" vertex="1">
          <mxGeometry x="327.76205673758864" y="20.943396226415075" width="3.141489361702128" height="4.188679245283019" as="geometry" />
        </mxCell>
        <mxCell id="5G7c4jUEA5Og9TPHIXhp-450" value="" style="rounded=1;whiteSpace=wrap;html=1;strokeColor=#222222;rotation=0;fillColor=#0050ef;fontColor=#ffffff;movable=1;resizable=1;rotatable=1;deletable=1;editable=1;locked=0;connectable=1;container=0;direction=south;strokeWidth=0.1;" parent="5G7c4jUEA5Og9TPHIXhp-406" vertex="1">
          <mxGeometry x="327.76205673758864" y="11.51886792452828" width="3.141489361702128" height="4.188679245283019" as="geometry" />
        </mxCell>
        <mxCell id="5G7c4jUEA5Og9TPHIXhp-451" value="" style="rounded=1;whiteSpace=wrap;html=1;strokeColor=none;fillColor=#0050ef;strokeWidth=0.5;fontColor=#ffffff;glass=0;movable=1;resizable=1;rotatable=1;deletable=1;editable=1;locked=0;connectable=1;container=0;" parent="5G7c4jUEA5Og9TPHIXhp-406" vertex="1">
          <mxGeometry x="300.5358156028369" y="6.283018867924511" width="8.377304964539007" height="13.613207547169813" as="geometry" />
        </mxCell>
        <mxCell id="5G7c4jUEA5Og9TPHIXhp-452" value="" style="shape=or;whiteSpace=wrap;html=1;fillColor=#0050ef;fontColor=#ffffff;strokeColor=none;movable=1;resizable=1;rotatable=1;deletable=1;editable=1;locked=0;connectable=1;container=0;" parent="5G7c4jUEA5Og9TPHIXhp-406" vertex="1">
          <mxGeometry x="307.8659574468085" y="6.283018867924511" width="3.141489361702128" height="13.613207547169813" as="geometry" />
        </mxCell>
        <mxCell id="5G7c4jUEA5Og9TPHIXhp-453" value="" style="sketch=0;html=1;strokeColor=#222222;shadow=0;fillColor=none;verticalAlign=top;labelPosition=center;verticalLabelPosition=bottom;shape=mxgraph.gcp2.a7_power;gradientColor=none;strokeWidth=0.1;movable=1;resizable=1;rotatable=1;deletable=1;editable=1;locked=0;connectable=1;container=0;" parent="5G7c4jUEA5Og9TPHIXhp-406" vertex="1">
          <mxGeometry x="327.76205673758864" y="7.330188679245282" width="3.141489361702128" height="3.1415094339622645" as="geometry" />
        </mxCell>
        <mxCell id="5G7c4jUEA5Og9TPHIXhp-454" value="" style="strokeWidth=0.1;html=1;shape=mxgraph.flowchart.database;whiteSpace=wrap;strokeColor=#222222;fillColor=none;movable=1;resizable=1;rotatable=1;deletable=1;editable=1;locked=0;connectable=1;container=0;" parent="5G7c4jUEA5Og9TPHIXhp-406" vertex="1">
          <mxGeometry x="327.76205673758864" y="16.754716981132077" width="3.141489361702128" height="3.1415094339622645" as="geometry" />
        </mxCell>
        <mxCell id="5G7c4jUEA5Og9TPHIXhp-455" value="" style="rounded=0;whiteSpace=wrap;html=1;strokeColor=none;fillColor=#333333;strokeWidth=0.5;movable=1;resizable=1;rotatable=1;deletable=1;editable=1;locked=0;connectable=1;container=0;" parent="5G7c4jUEA5Og9TPHIXhp-406" vertex="1">
          <mxGeometry x="225.14007092198585" y="3.1415094339622556" width="80.63156028368795" height="19.89622641509434" as="geometry" />
        </mxCell>
        <mxCell id="5G7c4jUEA5Og9TPHIXhp-456" value="" style="rounded=0;whiteSpace=wrap;html=1;strokeColor=none;fillColor=#2D2D2D;strokeWidth=0.2;movable=1;resizable=1;rotatable=1;deletable=1;editable=1;locked=0;connectable=1;container=0;" parent="5G7c4jUEA5Og9TPHIXhp-406" vertex="1">
          <mxGeometry x="291.1113475177305" y="5.759433962264154" width="4.188652482269504" height="14.660377358490567" as="geometry" />
        </mxCell>
        <mxCell id="5G7c4jUEA5Og9TPHIXhp-457" value="" style="rounded=0;whiteSpace=wrap;html=1;strokeColor=none;fillColor=#2D2D2D;strokeWidth=0.2;movable=1;resizable=1;rotatable=1;deletable=1;editable=1;locked=0;connectable=1;container=0;" parent="5G7c4jUEA5Og9TPHIXhp-406" vertex="1">
          <mxGeometry x="231.4230496453901" y="5.759433962264154" width="4.188652482269504" height="14.660377358490567" as="geometry" />
        </mxCell>
        <mxCell id="5G7c4jUEA5Og9TPHIXhp-458" value="" style="rounded=0;whiteSpace=wrap;html=1;strokeColor=none;fillColor=#222222;strokeWidth=0.2;movable=1;resizable=1;rotatable=1;deletable=1;editable=1;locked=0;connectable=1;container=0;" parent="5G7c4jUEA5Og9TPHIXhp-406" vertex="1">
          <mxGeometry x="235.6117021276596" y="5.759433962264154" width="55.499645390070924" height="2.0943396226415096" as="geometry" />
        </mxCell>
        <mxCell id="5G7c4jUEA5Og9TPHIXhp-459" value="" style="rounded=0;whiteSpace=wrap;html=1;strokeColor=none;fillColor=#222222;strokeWidth=0.2;movable=1;resizable=1;rotatable=1;deletable=1;editable=1;locked=0;connectable=1;container=0;" parent="5G7c4jUEA5Og9TPHIXhp-406" vertex="1">
          <mxGeometry x="235.6117021276596" y="9.948113207547152" width="55.499645390070924" height="2.0943396226415096" as="geometry" />
        </mxCell>
        <mxCell id="5G7c4jUEA5Og9TPHIXhp-460" value="" style="rounded=0;whiteSpace=wrap;html=1;strokeColor=none;fillColor=#222222;strokeWidth=0.2;movable=1;resizable=1;rotatable=1;deletable=1;editable=1;locked=0;connectable=1;container=0;" parent="5G7c4jUEA5Og9TPHIXhp-406" vertex="1">
          <mxGeometry x="235.6117021276596" y="14.136792452830178" width="55.499645390070924" height="2.0943396226415096" as="geometry" />
        </mxCell>
        <mxCell id="5G7c4jUEA5Og9TPHIXhp-461" value="" style="rounded=0;whiteSpace=wrap;html=1;strokeColor=none;fillColor=#222222;strokeWidth=0.2;movable=1;resizable=1;rotatable=1;deletable=1;editable=1;locked=0;connectable=1;container=0;" parent="5G7c4jUEA5Og9TPHIXhp-406" vertex="1">
          <mxGeometry x="235.6117021276596" y="18.325471698113205" width="55.499645390070924" height="2.0943396226415096" as="geometry" />
        </mxCell>
        <mxCell id="5G7c4jUEA5Og9TPHIXhp-462" value="" style="rounded=0;whiteSpace=wrap;html=1;strokeColor=none;fillColor=#2D2D2D;strokeWidth=0.2;movable=1;resizable=1;rotatable=1;deletable=1;editable=1;locked=0;connectable=1;container=0;" parent="5G7c4jUEA5Og9TPHIXhp-406" vertex="1">
          <mxGeometry x="252.36631205673763" y="5.759433962264154" width="2.094326241134752" height="14.660377358490567" as="geometry" />
        </mxCell>
        <mxCell id="5G7c4jUEA5Og9TPHIXhp-463" value="" style="rounded=0;whiteSpace=wrap;html=1;strokeColor=none;fillColor=#2D2D2D;strokeWidth=0.2;movable=1;resizable=1;rotatable=1;deletable=1;editable=1;locked=0;connectable=1;container=0;" parent="5G7c4jUEA5Og9TPHIXhp-406" vertex="1">
          <mxGeometry x="272.26241134751774" y="5.759433962264154" width="2.094326241134752" height="14.660377358490567" as="geometry" />
        </mxCell>
        <mxCell id="5G7c4jUEA5Og9TPHIXhp-464" value="" style="rounded=0;whiteSpace=wrap;html=1;strokeColor=none;fillColor=#333333;strokeWidth=0.5;movable=1;resizable=1;rotatable=1;deletable=1;editable=1;locked=0;connectable=1;container=0;" parent="5G7c4jUEA5Og9TPHIXhp-406" vertex="1">
          <mxGeometry x="235.6117021276596" y="16.23113207547169" width="55.499645390070924" height="2.0943396226415096" as="geometry" />
        </mxCell>
        <mxCell id="5G7c4jUEA5Og9TPHIXhp-465" value="" style="rounded=0;whiteSpace=wrap;html=1;strokeColor=none;fillColor=#333333;strokeWidth=0.5;movable=1;resizable=1;rotatable=1;deletable=1;editable=1;locked=0;connectable=1;container=0;" parent="5G7c4jUEA5Og9TPHIXhp-406" vertex="1">
          <mxGeometry x="235.6117021276596" y="12.042452830188665" width="55.499645390070924" height="2.0943396226415096" as="geometry" />
        </mxCell>
        <mxCell id="5G7c4jUEA5Og9TPHIXhp-466" value="" style="rounded=0;whiteSpace=wrap;html=1;strokeColor=none;fillColor=#333333;strokeWidth=0.5;movable=1;resizable=1;rotatable=1;deletable=1;editable=1;locked=0;connectable=1;container=0;" parent="5G7c4jUEA5Og9TPHIXhp-406" vertex="1">
          <mxGeometry x="235.6117021276596" y="7.853773584905639" width="55.499645390070924" height="2.0943396226415096" as="geometry" />
        </mxCell>
        <mxCell id="5G7c4jUEA5Og9TPHIXhp-467" value="" style="rounded=0;whiteSpace=wrap;html=1;strokeColor=none;fillColor=#333333;strokeWidth=0.5;movable=1;resizable=1;rotatable=1;deletable=1;editable=1;locked=0;connectable=1;container=0;" parent="5G7c4jUEA5Og9TPHIXhp-406" vertex="1">
          <mxGeometry x="332.99787234042554" width="109.95212765957447" height="26.179245283018872" as="geometry" />
        </mxCell>
        <mxCell id="5G7c4jUEA5Og9TPHIXhp-468" value="" style="rounded=0;whiteSpace=wrap;html=1;strokeColor=#222222;fillColor=#222222;strokeWidth=0.5;movable=1;resizable=1;rotatable=1;deletable=1;editable=1;locked=0;connectable=1;container=0;" parent="5G7c4jUEA5Og9TPHIXhp-406" vertex="1">
          <mxGeometry x="336.13936170212764" y="3.1415094339622556" width="101.57482269503546" height="19.89622641509434" as="geometry" />
        </mxCell>
        <mxCell id="5G7c4jUEA5Og9TPHIXhp-469" value="" style="rounded=1;whiteSpace=wrap;html=1;strokeColor=#222222;rotation=0;fillColor=#60a917;fontColor=#ffffff;movable=1;resizable=1;rotatable=1;deletable=1;editable=1;locked=0;connectable=1;container=0;direction=south;strokeWidth=0.1;" parent="5G7c4jUEA5Og9TPHIXhp-406" vertex="1">
          <mxGeometry x="438.76134751773054" y="20.943396226415075" width="3.141489361702128" height="4.188679245283019" as="geometry" />
        </mxCell>
        <mxCell id="5G7c4jUEA5Og9TPHIXhp-470" value="" style="rounded=1;whiteSpace=wrap;html=1;strokeColor=#222222;rotation=0;fillColor=#0050ef;fontColor=#ffffff;movable=1;resizable=1;rotatable=1;deletable=1;editable=1;locked=0;connectable=1;container=0;direction=south;strokeWidth=0.1;" parent="5G7c4jUEA5Og9TPHIXhp-406" vertex="1">
          <mxGeometry x="438.76134751773054" y="11.51886792452828" width="3.141489361702128" height="4.188679245283019" as="geometry" />
        </mxCell>
        <mxCell id="5G7c4jUEA5Og9TPHIXhp-471" value="" style="rounded=1;whiteSpace=wrap;html=1;strokeColor=none;fillColor=#0050ef;strokeWidth=0.5;fontColor=#ffffff;glass=0;movable=1;resizable=1;rotatable=1;deletable=1;editable=1;locked=0;connectable=1;container=0;" parent="5G7c4jUEA5Og9TPHIXhp-406" vertex="1">
          <mxGeometry x="411.5351063829787" y="6.283018867924511" width="8.377304964539007" height="13.613207547169813" as="geometry" />
        </mxCell>
        <mxCell id="5G7c4jUEA5Og9TPHIXhp-472" value="" style="shape=or;whiteSpace=wrap;html=1;fillColor=#0050ef;fontColor=#ffffff;strokeColor=none;movable=1;resizable=1;rotatable=1;deletable=1;editable=1;locked=0;connectable=1;container=0;" parent="5G7c4jUEA5Og9TPHIXhp-406" vertex="1">
          <mxGeometry x="418.86524822695037" y="6.283018867924511" width="3.141489361702128" height="13.613207547169813" as="geometry" />
        </mxCell>
        <mxCell id="5G7c4jUEA5Og9TPHIXhp-473" value="" style="sketch=0;html=1;strokeColor=#222222;shadow=0;fillColor=none;verticalAlign=top;labelPosition=center;verticalLabelPosition=bottom;shape=mxgraph.gcp2.a7_power;gradientColor=none;strokeWidth=0.1;movable=1;resizable=1;rotatable=1;deletable=1;editable=1;locked=0;connectable=1;container=0;" parent="5G7c4jUEA5Og9TPHIXhp-406" vertex="1">
          <mxGeometry x="438.76134751773054" y="7.330188679245282" width="3.141489361702128" height="3.1415094339622645" as="geometry" />
        </mxCell>
        <mxCell id="5G7c4jUEA5Og9TPHIXhp-474" value="" style="strokeWidth=0.1;html=1;shape=mxgraph.flowchart.database;whiteSpace=wrap;strokeColor=#222222;fillColor=none;movable=1;resizable=1;rotatable=1;deletable=1;editable=1;locked=0;connectable=1;container=0;" parent="5G7c4jUEA5Og9TPHIXhp-406" vertex="1">
          <mxGeometry x="438.76134751773054" y="16.754716981132077" width="3.141489361702128" height="3.1415094339622645" as="geometry" />
        </mxCell>
        <mxCell id="5G7c4jUEA5Og9TPHIXhp-475" value="" style="rounded=0;whiteSpace=wrap;html=1;strokeColor=none;fillColor=#333333;strokeWidth=0.5;movable=1;resizable=1;rotatable=1;deletable=1;editable=1;locked=0;connectable=1;container=0;" parent="5G7c4jUEA5Og9TPHIXhp-406" vertex="1">
          <mxGeometry x="336.13936170212764" y="3.1415094339622556" width="80.63156028368795" height="19.89622641509434" as="geometry" />
        </mxCell>
        <mxCell id="5G7c4jUEA5Og9TPHIXhp-476" value="" style="rounded=0;whiteSpace=wrap;html=1;strokeColor=none;fillColor=#2D2D2D;strokeWidth=0.2;movable=1;resizable=1;rotatable=1;deletable=1;editable=1;locked=0;connectable=1;container=0;" parent="5G7c4jUEA5Og9TPHIXhp-406" vertex="1">
          <mxGeometry x="402.11063829787236" y="5.759433962264154" width="4.188652482269504" height="14.660377358490567" as="geometry" />
        </mxCell>
        <mxCell id="5G7c4jUEA5Og9TPHIXhp-477" value="" style="rounded=0;whiteSpace=wrap;html=1;strokeColor=none;fillColor=#2D2D2D;strokeWidth=0.2;movable=1;resizable=1;rotatable=1;deletable=1;editable=1;locked=0;connectable=1;container=0;" parent="5G7c4jUEA5Og9TPHIXhp-406" vertex="1">
          <mxGeometry x="342.42234042553196" y="5.759433962264154" width="4.188652482269504" height="14.660377358490567" as="geometry" />
        </mxCell>
        <mxCell id="5G7c4jUEA5Og9TPHIXhp-478" value="" style="rounded=0;whiteSpace=wrap;html=1;strokeColor=none;fillColor=#222222;strokeWidth=0.2;movable=1;resizable=1;rotatable=1;deletable=1;editable=1;locked=0;connectable=1;container=0;" parent="5G7c4jUEA5Og9TPHIXhp-406" vertex="1">
          <mxGeometry x="346.61099290780146" y="5.759433962264154" width="55.499645390070924" height="2.0943396226415096" as="geometry" />
        </mxCell>
        <mxCell id="5G7c4jUEA5Og9TPHIXhp-479" value="" style="rounded=0;whiteSpace=wrap;html=1;strokeColor=none;fillColor=#222222;strokeWidth=0.2;movable=1;resizable=1;rotatable=1;deletable=1;editable=1;locked=0;connectable=1;container=0;" parent="5G7c4jUEA5Og9TPHIXhp-406" vertex="1">
          <mxGeometry x="346.61099290780146" y="9.948113207547152" width="55.499645390070924" height="2.0943396226415096" as="geometry" />
        </mxCell>
        <mxCell id="5G7c4jUEA5Og9TPHIXhp-480" value="" style="rounded=0;whiteSpace=wrap;html=1;strokeColor=none;fillColor=#222222;strokeWidth=0.2;movable=1;resizable=1;rotatable=1;deletable=1;editable=1;locked=0;connectable=1;container=0;" parent="5G7c4jUEA5Og9TPHIXhp-406" vertex="1">
          <mxGeometry x="346.61099290780146" y="14.136792452830178" width="55.499645390070924" height="2.0943396226415096" as="geometry" />
        </mxCell>
        <mxCell id="5G7c4jUEA5Og9TPHIXhp-481" value="" style="rounded=0;whiteSpace=wrap;html=1;strokeColor=none;fillColor=#222222;strokeWidth=0.2;movable=1;resizable=1;rotatable=1;deletable=1;editable=1;locked=0;connectable=1;container=0;" parent="5G7c4jUEA5Og9TPHIXhp-406" vertex="1">
          <mxGeometry x="346.61099290780146" y="18.325471698113205" width="55.499645390070924" height="2.0943396226415096" as="geometry" />
        </mxCell>
        <mxCell id="5G7c4jUEA5Og9TPHIXhp-482" value="" style="rounded=0;whiteSpace=wrap;html=1;strokeColor=none;fillColor=#2D2D2D;strokeWidth=0.2;movable=1;resizable=1;rotatable=1;deletable=1;editable=1;locked=0;connectable=1;container=0;" parent="5G7c4jUEA5Og9TPHIXhp-406" vertex="1">
          <mxGeometry x="363.3656028368795" y="5.759433962264154" width="2.094326241134752" height="14.660377358490567" as="geometry" />
        </mxCell>
        <mxCell id="5G7c4jUEA5Og9TPHIXhp-483" value="" style="rounded=0;whiteSpace=wrap;html=1;strokeColor=none;fillColor=#2D2D2D;strokeWidth=0.2;movable=1;resizable=1;rotatable=1;deletable=1;editable=1;locked=0;connectable=1;container=0;" parent="5G7c4jUEA5Og9TPHIXhp-406" vertex="1">
          <mxGeometry x="383.2617021276596" y="5.759433962264154" width="2.094326241134752" height="14.660377358490567" as="geometry" />
        </mxCell>
        <mxCell id="5G7c4jUEA5Og9TPHIXhp-484" value="" style="rounded=0;whiteSpace=wrap;html=1;strokeColor=none;fillColor=#333333;strokeWidth=0.5;movable=1;resizable=1;rotatable=1;deletable=1;editable=1;locked=0;connectable=1;container=0;" parent="5G7c4jUEA5Og9TPHIXhp-406" vertex="1">
          <mxGeometry x="346.61099290780146" y="16.23113207547169" width="55.499645390070924" height="2.0943396226415096" as="geometry" />
        </mxCell>
        <mxCell id="5G7c4jUEA5Og9TPHIXhp-485" value="" style="rounded=0;whiteSpace=wrap;html=1;strokeColor=none;fillColor=#333333;strokeWidth=0.5;movable=1;resizable=1;rotatable=1;deletable=1;editable=1;locked=0;connectable=1;container=0;" parent="5G7c4jUEA5Og9TPHIXhp-406" vertex="1">
          <mxGeometry x="346.61099290780146" y="12.042452830188665" width="55.499645390070924" height="2.0943396226415096" as="geometry" />
        </mxCell>
        <mxCell id="5G7c4jUEA5Og9TPHIXhp-486" value="" style="rounded=0;whiteSpace=wrap;html=1;strokeColor=none;fillColor=#333333;strokeWidth=0.5;movable=1;resizable=1;rotatable=1;deletable=1;editable=1;locked=0;connectable=1;container=0;" parent="5G7c4jUEA5Og9TPHIXhp-406" vertex="1">
          <mxGeometry x="346.61099290780146" y="7.853773584905639" width="55.499645390070924" height="2.0943396226415096" as="geometry" />
        </mxCell>
        <mxCell id="5G7c4jUEA5Og9TPHIXhp-487" value="" style="group" parent="BZf6F3fDbPlMnJJBv7aN-2" vertex="1" connectable="0">
          <mxGeometry x="19.830000000000002" y="31.830754716981147" width="442.95" height="26.179245283018872" as="geometry" />
        </mxCell>
        <mxCell id="5G7c4jUEA5Og9TPHIXhp-488" value="" style="rounded=0;whiteSpace=wrap;html=1;strokeColor=none;fillColor=#333333;strokeWidth=0.5;movable=1;resizable=1;rotatable=1;deletable=1;editable=1;locked=0;connectable=1;container=0;" parent="5G7c4jUEA5Og9TPHIXhp-487" vertex="1">
          <mxGeometry width="109.95212765957447" height="26.179245283018872" as="geometry" />
        </mxCell>
        <mxCell id="5G7c4jUEA5Og9TPHIXhp-489" value="" style="rounded=0;whiteSpace=wrap;html=1;strokeColor=#222222;fillColor=#222222;strokeWidth=0.5;movable=1;resizable=1;rotatable=1;deletable=1;editable=1;locked=0;connectable=1;container=0;" parent="5G7c4jUEA5Og9TPHIXhp-487" vertex="1">
          <mxGeometry x="3.141489361702128" y="3.1415094339622556" width="101.57482269503546" height="19.89622641509434" as="geometry" />
        </mxCell>
        <mxCell id="5G7c4jUEA5Og9TPHIXhp-490" value="" style="rounded=1;whiteSpace=wrap;html=1;strokeColor=#222222;rotation=0;fillColor=#60a917;fontColor=#ffffff;movable=1;resizable=1;rotatable=1;deletable=1;editable=1;locked=0;connectable=1;container=0;direction=south;strokeWidth=0.1;" parent="5G7c4jUEA5Og9TPHIXhp-487" vertex="1">
          <mxGeometry x="105.76347517730497" y="20.943396226415075" width="3.141489361702128" height="4.188679245283019" as="geometry" />
        </mxCell>
        <mxCell id="5G7c4jUEA5Og9TPHIXhp-491" value="" style="rounded=1;whiteSpace=wrap;html=1;strokeColor=#222222;rotation=0;fillColor=#0050ef;fontColor=#ffffff;movable=1;resizable=1;rotatable=1;deletable=1;editable=1;locked=0;connectable=1;container=0;direction=south;strokeWidth=0.1;" parent="5G7c4jUEA5Og9TPHIXhp-487" vertex="1">
          <mxGeometry x="105.76347517730497" y="11.51886792452828" width="3.141489361702128" height="4.188679245283019" as="geometry" />
        </mxCell>
        <mxCell id="5G7c4jUEA5Og9TPHIXhp-492" value="" style="rounded=1;whiteSpace=wrap;html=1;strokeColor=none;fillColor=#0050ef;strokeWidth=0.5;fontColor=#ffffff;glass=0;movable=1;resizable=1;rotatable=1;deletable=1;editable=1;locked=0;connectable=1;container=0;" parent="5G7c4jUEA5Og9TPHIXhp-487" vertex="1">
          <mxGeometry x="78.5372340425532" y="6.283018867924511" width="8.377304964539007" height="13.613207547169813" as="geometry" />
        </mxCell>
        <mxCell id="5G7c4jUEA5Og9TPHIXhp-493" value="" style="shape=or;whiteSpace=wrap;html=1;fillColor=#0050ef;fontColor=#ffffff;strokeColor=none;movable=1;resizable=1;rotatable=1;deletable=1;editable=1;locked=0;connectable=1;container=0;" parent="5G7c4jUEA5Og9TPHIXhp-487" vertex="1">
          <mxGeometry x="85.86737588652483" y="6.283018867924511" width="3.141489361702128" height="13.613207547169813" as="geometry" />
        </mxCell>
        <mxCell id="5G7c4jUEA5Og9TPHIXhp-494" value="" style="sketch=0;html=1;strokeColor=#222222;shadow=0;fillColor=none;verticalAlign=top;labelPosition=center;verticalLabelPosition=bottom;shape=mxgraph.gcp2.a7_power;gradientColor=none;strokeWidth=0.1;movable=1;resizable=1;rotatable=1;deletable=1;editable=1;locked=0;connectable=1;container=0;" parent="5G7c4jUEA5Og9TPHIXhp-487" vertex="1">
          <mxGeometry x="105.76347517730497" y="7.330188679245282" width="3.141489361702128" height="3.1415094339622645" as="geometry" />
        </mxCell>
        <mxCell id="5G7c4jUEA5Og9TPHIXhp-495" value="" style="strokeWidth=0.1;html=1;shape=mxgraph.flowchart.database;whiteSpace=wrap;strokeColor=#222222;fillColor=none;movable=1;resizable=1;rotatable=1;deletable=1;editable=1;locked=0;connectable=1;container=0;" parent="5G7c4jUEA5Og9TPHIXhp-487" vertex="1">
          <mxGeometry x="105.76347517730497" y="16.754716981132077" width="3.141489361702128" height="3.1415094339622645" as="geometry" />
        </mxCell>
        <mxCell id="5G7c4jUEA5Og9TPHIXhp-496" value="" style="rounded=0;whiteSpace=wrap;html=1;strokeColor=none;fillColor=#333333;strokeWidth=0.5;movable=1;resizable=1;rotatable=1;deletable=1;editable=1;locked=0;connectable=1;container=0;" parent="5G7c4jUEA5Og9TPHIXhp-487" vertex="1">
          <mxGeometry x="3.141489361702128" y="3.1415094339622556" width="80.63156028368795" height="19.89622641509434" as="geometry" />
        </mxCell>
        <mxCell id="5G7c4jUEA5Og9TPHIXhp-497" value="" style="rounded=0;whiteSpace=wrap;html=1;strokeColor=none;fillColor=#2D2D2D;strokeWidth=0.2;movable=1;resizable=1;rotatable=1;deletable=1;editable=1;locked=0;connectable=1;container=0;" parent="5G7c4jUEA5Og9TPHIXhp-487" vertex="1">
          <mxGeometry x="69.11276595744681" y="5.759433962264154" width="4.188652482269504" height="14.660377358490567" as="geometry" />
        </mxCell>
        <mxCell id="5G7c4jUEA5Og9TPHIXhp-498" value="" style="rounded=0;whiteSpace=wrap;html=1;strokeColor=none;fillColor=#2D2D2D;strokeWidth=0.2;movable=1;resizable=1;rotatable=1;deletable=1;editable=1;locked=0;connectable=1;container=0;" parent="5G7c4jUEA5Og9TPHIXhp-487" vertex="1">
          <mxGeometry x="9.424468085106383" y="5.759433962264154" width="4.188652482269504" height="14.660377358490567" as="geometry" />
        </mxCell>
        <mxCell id="5G7c4jUEA5Og9TPHIXhp-499" value="" style="rounded=0;whiteSpace=wrap;html=1;strokeColor=none;fillColor=#222222;strokeWidth=0.2;movable=1;resizable=1;rotatable=1;deletable=1;editable=1;locked=0;connectable=1;container=0;" parent="5G7c4jUEA5Og9TPHIXhp-487" vertex="1">
          <mxGeometry x="13.613120567375887" y="5.759433962264154" width="55.499645390070924" height="2.0943396226415096" as="geometry" />
        </mxCell>
        <mxCell id="5G7c4jUEA5Og9TPHIXhp-500" value="" style="rounded=0;whiteSpace=wrap;html=1;strokeColor=none;fillColor=#222222;strokeWidth=0.2;movable=1;resizable=1;rotatable=1;deletable=1;editable=1;locked=0;connectable=1;container=0;" parent="5G7c4jUEA5Og9TPHIXhp-487" vertex="1">
          <mxGeometry x="13.613120567375887" y="9.948113207547152" width="55.499645390070924" height="2.0943396226415096" as="geometry" />
        </mxCell>
        <mxCell id="5G7c4jUEA5Og9TPHIXhp-501" value="" style="rounded=0;whiteSpace=wrap;html=1;strokeColor=none;fillColor=#222222;strokeWidth=0.2;movable=1;resizable=1;rotatable=1;deletable=1;editable=1;locked=0;connectable=1;container=0;" parent="5G7c4jUEA5Og9TPHIXhp-487" vertex="1">
          <mxGeometry x="13.613120567375887" y="14.136792452830178" width="55.499645390070924" height="2.0943396226415096" as="geometry" />
        </mxCell>
        <mxCell id="5G7c4jUEA5Og9TPHIXhp-502" value="" style="rounded=0;whiteSpace=wrap;html=1;strokeColor=none;fillColor=#222222;strokeWidth=0.2;movable=1;resizable=1;rotatable=1;deletable=1;editable=1;locked=0;connectable=1;container=0;" parent="5G7c4jUEA5Og9TPHIXhp-487" vertex="1">
          <mxGeometry x="13.613120567375887" y="18.325471698113205" width="55.499645390070924" height="2.0943396226415096" as="geometry" />
        </mxCell>
        <mxCell id="5G7c4jUEA5Og9TPHIXhp-503" value="" style="rounded=0;whiteSpace=wrap;html=1;strokeColor=none;fillColor=#2D2D2D;strokeWidth=0.2;movable=1;resizable=1;rotatable=1;deletable=1;editable=1;locked=0;connectable=1;container=0;" parent="5G7c4jUEA5Og9TPHIXhp-487" vertex="1">
          <mxGeometry x="30.367730496453902" y="5.759433962264154" width="2.094326241134752" height="14.660377358490567" as="geometry" />
        </mxCell>
        <mxCell id="5G7c4jUEA5Og9TPHIXhp-504" value="" style="rounded=0;whiteSpace=wrap;html=1;strokeColor=none;fillColor=#2D2D2D;strokeWidth=0.2;movable=1;resizable=1;rotatable=1;deletable=1;editable=1;locked=0;connectable=1;container=0;" parent="5G7c4jUEA5Og9TPHIXhp-487" vertex="1">
          <mxGeometry x="50.263829787234044" y="5.759433962264154" width="2.094326241134752" height="14.660377358490567" as="geometry" />
        </mxCell>
        <mxCell id="5G7c4jUEA5Og9TPHIXhp-505" value="" style="rounded=0;whiteSpace=wrap;html=1;strokeColor=none;fillColor=#333333;strokeWidth=0.5;movable=1;resizable=1;rotatable=1;deletable=1;editable=1;locked=0;connectable=1;container=0;" parent="5G7c4jUEA5Og9TPHIXhp-487" vertex="1">
          <mxGeometry x="13.613120567375887" y="16.23113207547169" width="55.499645390070924" height="2.0943396226415096" as="geometry" />
        </mxCell>
        <mxCell id="5G7c4jUEA5Og9TPHIXhp-506" value="" style="rounded=0;whiteSpace=wrap;html=1;strokeColor=none;fillColor=#333333;strokeWidth=0.5;movable=1;resizable=1;rotatable=1;deletable=1;editable=1;locked=0;connectable=1;container=0;" parent="5G7c4jUEA5Og9TPHIXhp-487" vertex="1">
          <mxGeometry x="13.613120567375887" y="12.042452830188665" width="55.499645390070924" height="2.0943396226415096" as="geometry" />
        </mxCell>
        <mxCell id="5G7c4jUEA5Og9TPHIXhp-507" value="" style="rounded=0;whiteSpace=wrap;html=1;strokeColor=none;fillColor=#333333;strokeWidth=0.5;movable=1;resizable=1;rotatable=1;deletable=1;editable=1;locked=0;connectable=1;container=0;" parent="5G7c4jUEA5Og9TPHIXhp-487" vertex="1">
          <mxGeometry x="13.613120567375887" y="7.853773584905639" width="55.499645390070924" height="2.0943396226415096" as="geometry" />
        </mxCell>
        <mxCell id="5G7c4jUEA5Og9TPHIXhp-508" value="" style="rounded=0;whiteSpace=wrap;html=1;strokeColor=none;fillColor=#333333;strokeWidth=0.5;movable=1;resizable=1;rotatable=1;deletable=1;editable=1;locked=0;connectable=1;container=0;" parent="5G7c4jUEA5Og9TPHIXhp-487" vertex="1">
          <mxGeometry x="110.99929078014183" width="109.95212765957447" height="26.179245283018872" as="geometry" />
        </mxCell>
        <mxCell id="5G7c4jUEA5Og9TPHIXhp-509" value="" style="rounded=0;whiteSpace=wrap;html=1;strokeColor=#222222;fillColor=#222222;strokeWidth=0.5;movable=1;resizable=1;rotatable=1;deletable=1;editable=1;locked=0;connectable=1;container=0;" parent="5G7c4jUEA5Og9TPHIXhp-487" vertex="1">
          <mxGeometry x="114.14078014184399" y="3.1415094339622556" width="101.57482269503546" height="19.89622641509434" as="geometry" />
        </mxCell>
        <mxCell id="5G7c4jUEA5Og9TPHIXhp-510" value="" style="rounded=1;whiteSpace=wrap;html=1;strokeColor=#222222;rotation=0;fillColor=#60a917;fontColor=#ffffff;movable=1;resizable=1;rotatable=1;deletable=1;editable=1;locked=0;connectable=1;container=0;direction=south;strokeWidth=0.1;" parent="5G7c4jUEA5Og9TPHIXhp-487" vertex="1">
          <mxGeometry x="216.76276595744685" y="20.943396226415075" width="3.141489361702128" height="4.188679245283019" as="geometry" />
        </mxCell>
        <mxCell id="5G7c4jUEA5Og9TPHIXhp-511" value="" style="rounded=1;whiteSpace=wrap;html=1;strokeColor=#222222;rotation=0;fillColor=#0050ef;fontColor=#ffffff;movable=1;resizable=1;rotatable=1;deletable=1;editable=1;locked=0;connectable=1;container=0;direction=south;strokeWidth=0.1;" parent="5G7c4jUEA5Og9TPHIXhp-487" vertex="1">
          <mxGeometry x="216.76276595744685" y="11.51886792452828" width="3.141489361702128" height="4.188679245283019" as="geometry" />
        </mxCell>
        <mxCell id="5G7c4jUEA5Og9TPHIXhp-512" value="" style="rounded=1;whiteSpace=wrap;html=1;strokeColor=none;fillColor=#0050ef;strokeWidth=0.5;fontColor=#ffffff;glass=0;movable=1;resizable=1;rotatable=1;deletable=1;editable=1;locked=0;connectable=1;container=0;" parent="5G7c4jUEA5Og9TPHIXhp-487" vertex="1">
          <mxGeometry x="189.53652482269507" y="6.283018867924511" width="8.377304964539007" height="13.613207547169813" as="geometry" />
        </mxCell>
        <mxCell id="5G7c4jUEA5Og9TPHIXhp-513" value="" style="shape=or;whiteSpace=wrap;html=1;fillColor=#0050ef;fontColor=#ffffff;strokeColor=none;movable=1;resizable=1;rotatable=1;deletable=1;editable=1;locked=0;connectable=1;container=0;" parent="5G7c4jUEA5Og9TPHIXhp-487" vertex="1">
          <mxGeometry x="196.86666666666667" y="6.283018867924511" width="3.141489361702128" height="13.613207547169813" as="geometry" />
        </mxCell>
        <mxCell id="5G7c4jUEA5Og9TPHIXhp-514" value="" style="sketch=0;html=1;strokeColor=#222222;shadow=0;fillColor=none;verticalAlign=top;labelPosition=center;verticalLabelPosition=bottom;shape=mxgraph.gcp2.a7_power;gradientColor=none;strokeWidth=0.1;movable=1;resizable=1;rotatable=1;deletable=1;editable=1;locked=0;connectable=1;container=0;" parent="5G7c4jUEA5Og9TPHIXhp-487" vertex="1">
          <mxGeometry x="216.76276595744685" y="7.330188679245282" width="3.141489361702128" height="3.1415094339622645" as="geometry" />
        </mxCell>
        <mxCell id="5G7c4jUEA5Og9TPHIXhp-515" value="" style="strokeWidth=0.1;html=1;shape=mxgraph.flowchart.database;whiteSpace=wrap;strokeColor=#222222;fillColor=none;movable=1;resizable=1;rotatable=1;deletable=1;editable=1;locked=0;connectable=1;container=0;" parent="5G7c4jUEA5Og9TPHIXhp-487" vertex="1">
          <mxGeometry x="216.76276595744685" y="16.754716981132077" width="3.141489361702128" height="3.1415094339622645" as="geometry" />
        </mxCell>
        <mxCell id="5G7c4jUEA5Og9TPHIXhp-516" value="" style="rounded=0;whiteSpace=wrap;html=1;strokeColor=none;fillColor=#333333;strokeWidth=0.5;movable=1;resizable=1;rotatable=1;deletable=1;editable=1;locked=0;connectable=1;container=0;" parent="5G7c4jUEA5Og9TPHIXhp-487" vertex="1">
          <mxGeometry x="114.14078014184399" y="3.1415094339622556" width="80.63156028368795" height="19.89622641509434" as="geometry" />
        </mxCell>
        <mxCell id="5G7c4jUEA5Og9TPHIXhp-517" value="" style="rounded=0;whiteSpace=wrap;html=1;strokeColor=none;fillColor=#2D2D2D;strokeWidth=0.2;movable=1;resizable=1;rotatable=1;deletable=1;editable=1;locked=0;connectable=1;container=0;" parent="5G7c4jUEA5Og9TPHIXhp-487" vertex="1">
          <mxGeometry x="180.11205673758866" y="5.759433962264154" width="4.188652482269504" height="14.660377358490567" as="geometry" />
        </mxCell>
        <mxCell id="5G7c4jUEA5Og9TPHIXhp-518" value="" style="rounded=0;whiteSpace=wrap;html=1;strokeColor=none;fillColor=#2D2D2D;strokeWidth=0.2;movable=1;resizable=1;rotatable=1;deletable=1;editable=1;locked=0;connectable=1;container=0;" parent="5G7c4jUEA5Og9TPHIXhp-487" vertex="1">
          <mxGeometry x="120.42375886524825" y="5.759433962264154" width="4.188652482269504" height="14.660377358490567" as="geometry" />
        </mxCell>
        <mxCell id="5G7c4jUEA5Og9TPHIXhp-519" value="" style="rounded=0;whiteSpace=wrap;html=1;strokeColor=none;fillColor=#222222;strokeWidth=0.2;movable=1;resizable=1;rotatable=1;deletable=1;editable=1;locked=0;connectable=1;container=0;" parent="5G7c4jUEA5Og9TPHIXhp-487" vertex="1">
          <mxGeometry x="124.61241134751775" y="5.759433962264154" width="55.499645390070924" height="2.0943396226415096" as="geometry" />
        </mxCell>
        <mxCell id="5G7c4jUEA5Og9TPHIXhp-520" value="" style="rounded=0;whiteSpace=wrap;html=1;strokeColor=none;fillColor=#222222;strokeWidth=0.2;movable=1;resizable=1;rotatable=1;deletable=1;editable=1;locked=0;connectable=1;container=0;" parent="5G7c4jUEA5Og9TPHIXhp-487" vertex="1">
          <mxGeometry x="124.61241134751775" y="9.948113207547152" width="55.499645390070924" height="2.0943396226415096" as="geometry" />
        </mxCell>
        <mxCell id="5G7c4jUEA5Og9TPHIXhp-521" value="" style="rounded=0;whiteSpace=wrap;html=1;strokeColor=none;fillColor=#222222;strokeWidth=0.2;movable=1;resizable=1;rotatable=1;deletable=1;editable=1;locked=0;connectable=1;container=0;" parent="5G7c4jUEA5Og9TPHIXhp-487" vertex="1">
          <mxGeometry x="124.61241134751775" y="14.136792452830178" width="55.499645390070924" height="2.0943396226415096" as="geometry" />
        </mxCell>
        <mxCell id="5G7c4jUEA5Og9TPHIXhp-522" value="" style="rounded=0;whiteSpace=wrap;html=1;strokeColor=none;fillColor=#222222;strokeWidth=0.2;movable=1;resizable=1;rotatable=1;deletable=1;editable=1;locked=0;connectable=1;container=0;" parent="5G7c4jUEA5Og9TPHIXhp-487" vertex="1">
          <mxGeometry x="124.61241134751775" y="18.325471698113205" width="55.499645390070924" height="2.0943396226415096" as="geometry" />
        </mxCell>
        <mxCell id="5G7c4jUEA5Og9TPHIXhp-523" value="" style="rounded=0;whiteSpace=wrap;html=1;strokeColor=none;fillColor=#2D2D2D;strokeWidth=0.2;movable=1;resizable=1;rotatable=1;deletable=1;editable=1;locked=0;connectable=1;container=0;" parent="5G7c4jUEA5Og9TPHIXhp-487" vertex="1">
          <mxGeometry x="141.36702127659578" y="5.759433962264154" width="2.094326241134752" height="14.660377358490567" as="geometry" />
        </mxCell>
        <mxCell id="5G7c4jUEA5Og9TPHIXhp-524" value="" style="rounded=0;whiteSpace=wrap;html=1;strokeColor=none;fillColor=#2D2D2D;strokeWidth=0.2;movable=1;resizable=1;rotatable=1;deletable=1;editable=1;locked=0;connectable=1;container=0;" parent="5G7c4jUEA5Og9TPHIXhp-487" vertex="1">
          <mxGeometry x="161.2631205673759" y="5.759433962264154" width="2.094326241134752" height="14.660377358490567" as="geometry" />
        </mxCell>
        <mxCell id="5G7c4jUEA5Og9TPHIXhp-525" value="" style="rounded=0;whiteSpace=wrap;html=1;strokeColor=none;fillColor=#333333;strokeWidth=0.5;movable=1;resizable=1;rotatable=1;deletable=1;editable=1;locked=0;connectable=1;container=0;" parent="5G7c4jUEA5Og9TPHIXhp-487" vertex="1">
          <mxGeometry x="124.61241134751775" y="16.23113207547169" width="55.499645390070924" height="2.0943396226415096" as="geometry" />
        </mxCell>
        <mxCell id="5G7c4jUEA5Og9TPHIXhp-526" value="" style="rounded=0;whiteSpace=wrap;html=1;strokeColor=none;fillColor=#333333;strokeWidth=0.5;movable=1;resizable=1;rotatable=1;deletable=1;editable=1;locked=0;connectable=1;container=0;" parent="5G7c4jUEA5Og9TPHIXhp-487" vertex="1">
          <mxGeometry x="124.61241134751775" y="12.042452830188665" width="55.499645390070924" height="2.0943396226415096" as="geometry" />
        </mxCell>
        <mxCell id="5G7c4jUEA5Og9TPHIXhp-527" value="" style="rounded=0;whiteSpace=wrap;html=1;strokeColor=none;fillColor=#333333;strokeWidth=0.5;movable=1;resizable=1;rotatable=1;deletable=1;editable=1;locked=0;connectable=1;container=0;" parent="5G7c4jUEA5Og9TPHIXhp-487" vertex="1">
          <mxGeometry x="124.61241134751775" y="7.853773584905639" width="55.499645390070924" height="2.0943396226415096" as="geometry" />
        </mxCell>
        <mxCell id="5G7c4jUEA5Og9TPHIXhp-528" value="" style="rounded=0;whiteSpace=wrap;html=1;strokeColor=none;fillColor=#333333;strokeWidth=0.5;movable=1;resizable=1;rotatable=1;deletable=1;editable=1;locked=0;connectable=1;container=0;" parent="5G7c4jUEA5Og9TPHIXhp-487" vertex="1">
          <mxGeometry x="221.9985815602837" width="109.95212765957447" height="26.179245283018872" as="geometry" />
        </mxCell>
        <mxCell id="5G7c4jUEA5Og9TPHIXhp-529" value="" style="rounded=0;whiteSpace=wrap;html=1;strokeColor=#222222;fillColor=#222222;strokeWidth=0.5;movable=1;resizable=1;rotatable=1;deletable=1;editable=1;locked=0;connectable=1;container=0;" parent="5G7c4jUEA5Og9TPHIXhp-487" vertex="1">
          <mxGeometry x="225.14007092198585" y="3.1415094339622556" width="101.57482269503546" height="19.89622641509434" as="geometry" />
        </mxCell>
        <mxCell id="5G7c4jUEA5Og9TPHIXhp-530" value="" style="rounded=1;whiteSpace=wrap;html=1;strokeColor=#222222;rotation=0;fillColor=#60a917;fontColor=#ffffff;movable=1;resizable=1;rotatable=1;deletable=1;editable=1;locked=0;connectable=1;container=0;direction=south;strokeWidth=0.1;" parent="5G7c4jUEA5Og9TPHIXhp-487" vertex="1">
          <mxGeometry x="327.76205673758864" y="20.943396226415075" width="3.141489361702128" height="4.188679245283019" as="geometry" />
        </mxCell>
        <mxCell id="5G7c4jUEA5Og9TPHIXhp-531" value="" style="rounded=1;whiteSpace=wrap;html=1;strokeColor=#222222;rotation=0;fillColor=#0050ef;fontColor=#ffffff;movable=1;resizable=1;rotatable=1;deletable=1;editable=1;locked=0;connectable=1;container=0;direction=south;strokeWidth=0.1;" parent="5G7c4jUEA5Og9TPHIXhp-487" vertex="1">
          <mxGeometry x="327.76205673758864" y="11.51886792452828" width="3.141489361702128" height="4.188679245283019" as="geometry" />
        </mxCell>
        <mxCell id="5G7c4jUEA5Og9TPHIXhp-532" value="" style="rounded=1;whiteSpace=wrap;html=1;strokeColor=none;fillColor=#0050ef;strokeWidth=0.5;fontColor=#ffffff;glass=0;movable=1;resizable=1;rotatable=1;deletable=1;editable=1;locked=0;connectable=1;container=0;" parent="5G7c4jUEA5Og9TPHIXhp-487" vertex="1">
          <mxGeometry x="300.5358156028369" y="6.283018867924511" width="8.377304964539007" height="13.613207547169813" as="geometry" />
        </mxCell>
        <mxCell id="5G7c4jUEA5Og9TPHIXhp-533" value="" style="shape=or;whiteSpace=wrap;html=1;fillColor=#0050ef;fontColor=#ffffff;strokeColor=none;movable=1;resizable=1;rotatable=1;deletable=1;editable=1;locked=0;connectable=1;container=0;" parent="5G7c4jUEA5Og9TPHIXhp-487" vertex="1">
          <mxGeometry x="307.8659574468085" y="6.283018867924511" width="3.141489361702128" height="13.613207547169813" as="geometry" />
        </mxCell>
        <mxCell id="5G7c4jUEA5Og9TPHIXhp-534" value="" style="sketch=0;html=1;strokeColor=#222222;shadow=0;fillColor=none;verticalAlign=top;labelPosition=center;verticalLabelPosition=bottom;shape=mxgraph.gcp2.a7_power;gradientColor=none;strokeWidth=0.1;movable=1;resizable=1;rotatable=1;deletable=1;editable=1;locked=0;connectable=1;container=0;" parent="5G7c4jUEA5Og9TPHIXhp-487" vertex="1">
          <mxGeometry x="327.76205673758864" y="7.330188679245282" width="3.141489361702128" height="3.1415094339622645" as="geometry" />
        </mxCell>
        <mxCell id="5G7c4jUEA5Og9TPHIXhp-535" value="" style="strokeWidth=0.1;html=1;shape=mxgraph.flowchart.database;whiteSpace=wrap;strokeColor=#222222;fillColor=none;movable=1;resizable=1;rotatable=1;deletable=1;editable=1;locked=0;connectable=1;container=0;" parent="5G7c4jUEA5Og9TPHIXhp-487" vertex="1">
          <mxGeometry x="327.76205673758864" y="16.754716981132077" width="3.141489361702128" height="3.1415094339622645" as="geometry" />
        </mxCell>
        <mxCell id="5G7c4jUEA5Og9TPHIXhp-536" value="" style="rounded=0;whiteSpace=wrap;html=1;strokeColor=none;fillColor=#333333;strokeWidth=0.5;movable=1;resizable=1;rotatable=1;deletable=1;editable=1;locked=0;connectable=1;container=0;" parent="5G7c4jUEA5Og9TPHIXhp-487" vertex="1">
          <mxGeometry x="225.14007092198585" y="3.1415094339622556" width="80.63156028368795" height="19.89622641509434" as="geometry" />
        </mxCell>
        <mxCell id="5G7c4jUEA5Og9TPHIXhp-537" value="" style="rounded=0;whiteSpace=wrap;html=1;strokeColor=none;fillColor=#2D2D2D;strokeWidth=0.2;movable=1;resizable=1;rotatable=1;deletable=1;editable=1;locked=0;connectable=1;container=0;" parent="5G7c4jUEA5Og9TPHIXhp-487" vertex="1">
          <mxGeometry x="291.1113475177305" y="5.759433962264154" width="4.188652482269504" height="14.660377358490567" as="geometry" />
        </mxCell>
        <mxCell id="5G7c4jUEA5Og9TPHIXhp-538" value="" style="rounded=0;whiteSpace=wrap;html=1;strokeColor=none;fillColor=#2D2D2D;strokeWidth=0.2;movable=1;resizable=1;rotatable=1;deletable=1;editable=1;locked=0;connectable=1;container=0;" parent="5G7c4jUEA5Og9TPHIXhp-487" vertex="1">
          <mxGeometry x="231.4230496453901" y="5.759433962264154" width="4.188652482269504" height="14.660377358490567" as="geometry" />
        </mxCell>
        <mxCell id="5G7c4jUEA5Og9TPHIXhp-539" value="" style="rounded=0;whiteSpace=wrap;html=1;strokeColor=none;fillColor=#222222;strokeWidth=0.2;movable=1;resizable=1;rotatable=1;deletable=1;editable=1;locked=0;connectable=1;container=0;" parent="5G7c4jUEA5Og9TPHIXhp-487" vertex="1">
          <mxGeometry x="235.6117021276596" y="5.759433962264154" width="55.499645390070924" height="2.0943396226415096" as="geometry" />
        </mxCell>
        <mxCell id="5G7c4jUEA5Og9TPHIXhp-540" value="" style="rounded=0;whiteSpace=wrap;html=1;strokeColor=none;fillColor=#222222;strokeWidth=0.2;movable=1;resizable=1;rotatable=1;deletable=1;editable=1;locked=0;connectable=1;container=0;" parent="5G7c4jUEA5Og9TPHIXhp-487" vertex="1">
          <mxGeometry x="235.6117021276596" y="9.948113207547152" width="55.499645390070924" height="2.0943396226415096" as="geometry" />
        </mxCell>
        <mxCell id="5G7c4jUEA5Og9TPHIXhp-541" value="" style="rounded=0;whiteSpace=wrap;html=1;strokeColor=none;fillColor=#222222;strokeWidth=0.2;movable=1;resizable=1;rotatable=1;deletable=1;editable=1;locked=0;connectable=1;container=0;" parent="5G7c4jUEA5Og9TPHIXhp-487" vertex="1">
          <mxGeometry x="235.6117021276596" y="14.136792452830178" width="55.499645390070924" height="2.0943396226415096" as="geometry" />
        </mxCell>
        <mxCell id="5G7c4jUEA5Og9TPHIXhp-542" value="" style="rounded=0;whiteSpace=wrap;html=1;strokeColor=none;fillColor=#222222;strokeWidth=0.2;movable=1;resizable=1;rotatable=1;deletable=1;editable=1;locked=0;connectable=1;container=0;" parent="5G7c4jUEA5Og9TPHIXhp-487" vertex="1">
          <mxGeometry x="235.6117021276596" y="18.325471698113205" width="55.499645390070924" height="2.0943396226415096" as="geometry" />
        </mxCell>
        <mxCell id="5G7c4jUEA5Og9TPHIXhp-543" value="" style="rounded=0;whiteSpace=wrap;html=1;strokeColor=none;fillColor=#2D2D2D;strokeWidth=0.2;movable=1;resizable=1;rotatable=1;deletable=1;editable=1;locked=0;connectable=1;container=0;" parent="5G7c4jUEA5Og9TPHIXhp-487" vertex="1">
          <mxGeometry x="252.36631205673763" y="5.759433962264154" width="2.094326241134752" height="14.660377358490567" as="geometry" />
        </mxCell>
        <mxCell id="5G7c4jUEA5Og9TPHIXhp-544" value="" style="rounded=0;whiteSpace=wrap;html=1;strokeColor=none;fillColor=#2D2D2D;strokeWidth=0.2;movable=1;resizable=1;rotatable=1;deletable=1;editable=1;locked=0;connectable=1;container=0;" parent="5G7c4jUEA5Og9TPHIXhp-487" vertex="1">
          <mxGeometry x="272.26241134751774" y="5.759433962264154" width="2.094326241134752" height="14.660377358490567" as="geometry" />
        </mxCell>
        <mxCell id="5G7c4jUEA5Og9TPHIXhp-545" value="" style="rounded=0;whiteSpace=wrap;html=1;strokeColor=none;fillColor=#333333;strokeWidth=0.5;movable=1;resizable=1;rotatable=1;deletable=1;editable=1;locked=0;connectable=1;container=0;" parent="5G7c4jUEA5Og9TPHIXhp-487" vertex="1">
          <mxGeometry x="235.6117021276596" y="16.23113207547169" width="55.499645390070924" height="2.0943396226415096" as="geometry" />
        </mxCell>
        <mxCell id="5G7c4jUEA5Og9TPHIXhp-546" value="" style="rounded=0;whiteSpace=wrap;html=1;strokeColor=none;fillColor=#333333;strokeWidth=0.5;movable=1;resizable=1;rotatable=1;deletable=1;editable=1;locked=0;connectable=1;container=0;" parent="5G7c4jUEA5Og9TPHIXhp-487" vertex="1">
          <mxGeometry x="235.6117021276596" y="12.042452830188665" width="55.499645390070924" height="2.0943396226415096" as="geometry" />
        </mxCell>
        <mxCell id="5G7c4jUEA5Og9TPHIXhp-547" value="" style="rounded=0;whiteSpace=wrap;html=1;strokeColor=none;fillColor=#333333;strokeWidth=0.5;movable=1;resizable=1;rotatable=1;deletable=1;editable=1;locked=0;connectable=1;container=0;" parent="5G7c4jUEA5Og9TPHIXhp-487" vertex="1">
          <mxGeometry x="235.6117021276596" y="7.853773584905639" width="55.499645390070924" height="2.0943396226415096" as="geometry" />
        </mxCell>
        <mxCell id="5G7c4jUEA5Og9TPHIXhp-548" value="" style="rounded=0;whiteSpace=wrap;html=1;strokeColor=none;fillColor=#333333;strokeWidth=0.5;movable=1;resizable=1;rotatable=1;deletable=1;editable=1;locked=0;connectable=1;container=0;" parent="5G7c4jUEA5Og9TPHIXhp-487" vertex="1">
          <mxGeometry x="332.99787234042554" width="109.95212765957447" height="26.179245283018872" as="geometry" />
        </mxCell>
        <mxCell id="5G7c4jUEA5Og9TPHIXhp-549" value="" style="rounded=0;whiteSpace=wrap;html=1;strokeColor=#222222;fillColor=#222222;strokeWidth=0.5;movable=1;resizable=1;rotatable=1;deletable=1;editable=1;locked=0;connectable=1;container=0;" parent="5G7c4jUEA5Og9TPHIXhp-487" vertex="1">
          <mxGeometry x="336.13936170212764" y="3.1415094339622556" width="101.57482269503546" height="19.89622641509434" as="geometry" />
        </mxCell>
        <mxCell id="5G7c4jUEA5Og9TPHIXhp-550" value="" style="rounded=1;whiteSpace=wrap;html=1;strokeColor=#222222;rotation=0;fillColor=#60a917;fontColor=#ffffff;movable=1;resizable=1;rotatable=1;deletable=1;editable=1;locked=0;connectable=1;container=0;direction=south;strokeWidth=0.1;" parent="5G7c4jUEA5Og9TPHIXhp-487" vertex="1">
          <mxGeometry x="438.76134751773054" y="20.943396226415075" width="3.141489361702128" height="4.188679245283019" as="geometry" />
        </mxCell>
        <mxCell id="5G7c4jUEA5Og9TPHIXhp-551" value="" style="rounded=1;whiteSpace=wrap;html=1;strokeColor=#222222;rotation=0;fillColor=#0050ef;fontColor=#ffffff;movable=1;resizable=1;rotatable=1;deletable=1;editable=1;locked=0;connectable=1;container=0;direction=south;strokeWidth=0.1;" parent="5G7c4jUEA5Og9TPHIXhp-487" vertex="1">
          <mxGeometry x="438.76134751773054" y="11.51886792452828" width="3.141489361702128" height="4.188679245283019" as="geometry" />
        </mxCell>
        <mxCell id="5G7c4jUEA5Og9TPHIXhp-552" value="" style="rounded=1;whiteSpace=wrap;html=1;strokeColor=none;fillColor=#0050ef;strokeWidth=0.5;fontColor=#ffffff;glass=0;movable=1;resizable=1;rotatable=1;deletable=1;editable=1;locked=0;connectable=1;container=0;" parent="5G7c4jUEA5Og9TPHIXhp-487" vertex="1">
          <mxGeometry x="411.5351063829787" y="6.283018867924511" width="8.377304964539007" height="13.613207547169813" as="geometry" />
        </mxCell>
        <mxCell id="5G7c4jUEA5Og9TPHIXhp-553" value="" style="shape=or;whiteSpace=wrap;html=1;fillColor=#0050ef;fontColor=#ffffff;strokeColor=none;movable=1;resizable=1;rotatable=1;deletable=1;editable=1;locked=0;connectable=1;container=0;" parent="5G7c4jUEA5Og9TPHIXhp-487" vertex="1">
          <mxGeometry x="418.86524822695037" y="6.283018867924511" width="3.141489361702128" height="13.613207547169813" as="geometry" />
        </mxCell>
        <mxCell id="5G7c4jUEA5Og9TPHIXhp-554" value="" style="sketch=0;html=1;strokeColor=#222222;shadow=0;fillColor=none;verticalAlign=top;labelPosition=center;verticalLabelPosition=bottom;shape=mxgraph.gcp2.a7_power;gradientColor=none;strokeWidth=0.1;movable=1;resizable=1;rotatable=1;deletable=1;editable=1;locked=0;connectable=1;container=0;" parent="5G7c4jUEA5Og9TPHIXhp-487" vertex="1">
          <mxGeometry x="438.76134751773054" y="7.330188679245282" width="3.141489361702128" height="3.1415094339622645" as="geometry" />
        </mxCell>
        <mxCell id="5G7c4jUEA5Og9TPHIXhp-555" value="" style="strokeWidth=0.1;html=1;shape=mxgraph.flowchart.database;whiteSpace=wrap;strokeColor=#222222;fillColor=none;movable=1;resizable=1;rotatable=1;deletable=1;editable=1;locked=0;connectable=1;container=0;" parent="5G7c4jUEA5Og9TPHIXhp-487" vertex="1">
          <mxGeometry x="438.76134751773054" y="16.754716981132077" width="3.141489361702128" height="3.1415094339622645" as="geometry" />
        </mxCell>
        <mxCell id="5G7c4jUEA5Og9TPHIXhp-556" value="" style="rounded=0;whiteSpace=wrap;html=1;strokeColor=none;fillColor=#333333;strokeWidth=0.5;movable=1;resizable=1;rotatable=1;deletable=1;editable=1;locked=0;connectable=1;container=0;" parent="5G7c4jUEA5Og9TPHIXhp-487" vertex="1">
          <mxGeometry x="336.13936170212764" y="3.1415094339622556" width="80.63156028368795" height="19.89622641509434" as="geometry" />
        </mxCell>
        <mxCell id="5G7c4jUEA5Og9TPHIXhp-557" value="" style="rounded=0;whiteSpace=wrap;html=1;strokeColor=none;fillColor=#2D2D2D;strokeWidth=0.2;movable=1;resizable=1;rotatable=1;deletable=1;editable=1;locked=0;connectable=1;container=0;" parent="5G7c4jUEA5Og9TPHIXhp-487" vertex="1">
          <mxGeometry x="402.11063829787236" y="5.759433962264154" width="4.188652482269504" height="14.660377358490567" as="geometry" />
        </mxCell>
        <mxCell id="5G7c4jUEA5Og9TPHIXhp-558" value="" style="rounded=0;whiteSpace=wrap;html=1;strokeColor=none;fillColor=#2D2D2D;strokeWidth=0.2;movable=1;resizable=1;rotatable=1;deletable=1;editable=1;locked=0;connectable=1;container=0;" parent="5G7c4jUEA5Og9TPHIXhp-487" vertex="1">
          <mxGeometry x="342.42234042553196" y="5.759433962264154" width="4.188652482269504" height="14.660377358490567" as="geometry" />
        </mxCell>
        <mxCell id="5G7c4jUEA5Og9TPHIXhp-559" value="" style="rounded=0;whiteSpace=wrap;html=1;strokeColor=none;fillColor=#222222;strokeWidth=0.2;movable=1;resizable=1;rotatable=1;deletable=1;editable=1;locked=0;connectable=1;container=0;" parent="5G7c4jUEA5Og9TPHIXhp-487" vertex="1">
          <mxGeometry x="346.61099290780146" y="5.759433962264154" width="55.499645390070924" height="2.0943396226415096" as="geometry" />
        </mxCell>
        <mxCell id="5G7c4jUEA5Og9TPHIXhp-560" value="" style="rounded=0;whiteSpace=wrap;html=1;strokeColor=none;fillColor=#222222;strokeWidth=0.2;movable=1;resizable=1;rotatable=1;deletable=1;editable=1;locked=0;connectable=1;container=0;" parent="5G7c4jUEA5Og9TPHIXhp-487" vertex="1">
          <mxGeometry x="346.61099290780146" y="9.948113207547152" width="55.499645390070924" height="2.0943396226415096" as="geometry" />
        </mxCell>
        <mxCell id="5G7c4jUEA5Og9TPHIXhp-561" value="" style="rounded=0;whiteSpace=wrap;html=1;strokeColor=none;fillColor=#222222;strokeWidth=0.2;movable=1;resizable=1;rotatable=1;deletable=1;editable=1;locked=0;connectable=1;container=0;" parent="5G7c4jUEA5Og9TPHIXhp-487" vertex="1">
          <mxGeometry x="346.61099290780146" y="14.136792452830178" width="55.499645390070924" height="2.0943396226415096" as="geometry" />
        </mxCell>
        <mxCell id="5G7c4jUEA5Og9TPHIXhp-562" value="" style="rounded=0;whiteSpace=wrap;html=1;strokeColor=none;fillColor=#222222;strokeWidth=0.2;movable=1;resizable=1;rotatable=1;deletable=1;editable=1;locked=0;connectable=1;container=0;" parent="5G7c4jUEA5Og9TPHIXhp-487" vertex="1">
          <mxGeometry x="346.61099290780146" y="18.325471698113205" width="55.499645390070924" height="2.0943396226415096" as="geometry" />
        </mxCell>
        <mxCell id="5G7c4jUEA5Og9TPHIXhp-563" value="" style="rounded=0;whiteSpace=wrap;html=1;strokeColor=none;fillColor=#2D2D2D;strokeWidth=0.2;movable=1;resizable=1;rotatable=1;deletable=1;editable=1;locked=0;connectable=1;container=0;" parent="5G7c4jUEA5Og9TPHIXhp-487" vertex="1">
          <mxGeometry x="363.3656028368795" y="5.759433962264154" width="2.094326241134752" height="14.660377358490567" as="geometry" />
        </mxCell>
        <mxCell id="5G7c4jUEA5Og9TPHIXhp-564" value="" style="rounded=0;whiteSpace=wrap;html=1;strokeColor=none;fillColor=#2D2D2D;strokeWidth=0.2;movable=1;resizable=1;rotatable=1;deletable=1;editable=1;locked=0;connectable=1;container=0;" parent="5G7c4jUEA5Og9TPHIXhp-487" vertex="1">
          <mxGeometry x="383.2617021276596" y="5.759433962264154" width="2.094326241134752" height="14.660377358490567" as="geometry" />
        </mxCell>
        <mxCell id="5G7c4jUEA5Og9TPHIXhp-565" value="" style="rounded=0;whiteSpace=wrap;html=1;strokeColor=none;fillColor=#333333;strokeWidth=0.5;movable=1;resizable=1;rotatable=1;deletable=1;editable=1;locked=0;connectable=1;container=0;" parent="5G7c4jUEA5Og9TPHIXhp-487" vertex="1">
          <mxGeometry x="346.61099290780146" y="16.23113207547169" width="55.499645390070924" height="2.0943396226415096" as="geometry" />
        </mxCell>
        <mxCell id="5G7c4jUEA5Og9TPHIXhp-566" value="" style="rounded=0;whiteSpace=wrap;html=1;strokeColor=none;fillColor=#333333;strokeWidth=0.5;movable=1;resizable=1;rotatable=1;deletable=1;editable=1;locked=0;connectable=1;container=0;" parent="5G7c4jUEA5Og9TPHIXhp-487" vertex="1">
          <mxGeometry x="346.61099290780146" y="12.042452830188665" width="55.499645390070924" height="2.0943396226415096" as="geometry" />
        </mxCell>
        <mxCell id="5G7c4jUEA5Og9TPHIXhp-567" value="" style="rounded=0;whiteSpace=wrap;html=1;strokeColor=none;fillColor=#333333;strokeWidth=0.5;movable=1;resizable=1;rotatable=1;deletable=1;editable=1;locked=0;connectable=1;container=0;" parent="5G7c4jUEA5Og9TPHIXhp-487" vertex="1">
          <mxGeometry x="346.61099290780146" y="7.853773584905639" width="55.499645390070924" height="2.0943396226415096" as="geometry" />
        </mxCell>
        <mxCell id="5G7c4jUEA5Og9TPHIXhp-568" value="" style="group" parent="BZf6F3fDbPlMnJJBv7aN-2" vertex="1" connectable="0">
          <mxGeometry x="19.83" y="2.6507547169811474" width="442.95" height="26.179245283018872" as="geometry" />
        </mxCell>
        <mxCell id="5G7c4jUEA5Og9TPHIXhp-569" value="" style="rounded=0;whiteSpace=wrap;html=1;strokeColor=none;fillColor=#333333;strokeWidth=0.5;movable=1;resizable=1;rotatable=1;deletable=1;editable=1;locked=0;connectable=1;container=0;" parent="5G7c4jUEA5Og9TPHIXhp-568" vertex="1">
          <mxGeometry width="109.95212765957447" height="26.179245283018872" as="geometry" />
        </mxCell>
        <mxCell id="5G7c4jUEA5Og9TPHIXhp-570" value="" style="rounded=0;whiteSpace=wrap;html=1;strokeColor=#222222;fillColor=#222222;strokeWidth=0.5;movable=1;resizable=1;rotatable=1;deletable=1;editable=1;locked=0;connectable=1;container=0;" parent="5G7c4jUEA5Og9TPHIXhp-568" vertex="1">
          <mxGeometry x="3.141489361702128" y="3.1415094339622556" width="101.57482269503546" height="19.89622641509434" as="geometry" />
        </mxCell>
        <mxCell id="5G7c4jUEA5Og9TPHIXhp-571" value="" style="rounded=1;whiteSpace=wrap;html=1;strokeColor=#222222;rotation=0;fillColor=#60a917;fontColor=#ffffff;movable=1;resizable=1;rotatable=1;deletable=1;editable=1;locked=0;connectable=1;container=0;direction=south;strokeWidth=0.1;" parent="5G7c4jUEA5Og9TPHIXhp-568" vertex="1">
          <mxGeometry x="105.76347517730497" y="20.943396226415075" width="3.141489361702128" height="4.188679245283019" as="geometry" />
        </mxCell>
        <mxCell id="5G7c4jUEA5Og9TPHIXhp-572" value="" style="rounded=1;whiteSpace=wrap;html=1;strokeColor=#222222;rotation=0;fillColor=#0050ef;fontColor=#ffffff;movable=1;resizable=1;rotatable=1;deletable=1;editable=1;locked=0;connectable=1;container=0;direction=south;strokeWidth=0.1;" parent="5G7c4jUEA5Og9TPHIXhp-568" vertex="1">
          <mxGeometry x="105.76347517730497" y="11.51886792452828" width="3.141489361702128" height="4.188679245283019" as="geometry" />
        </mxCell>
        <mxCell id="5G7c4jUEA5Og9TPHIXhp-573" value="" style="rounded=1;whiteSpace=wrap;html=1;strokeColor=none;fillColor=#0050ef;strokeWidth=0.5;fontColor=#ffffff;glass=0;movable=1;resizable=1;rotatable=1;deletable=1;editable=1;locked=0;connectable=1;container=0;" parent="5G7c4jUEA5Og9TPHIXhp-568" vertex="1">
          <mxGeometry x="78.5372340425532" y="6.283018867924511" width="8.377304964539007" height="13.613207547169813" as="geometry" />
        </mxCell>
        <mxCell id="5G7c4jUEA5Og9TPHIXhp-574" value="" style="shape=or;whiteSpace=wrap;html=1;fillColor=#0050ef;fontColor=#ffffff;strokeColor=none;movable=1;resizable=1;rotatable=1;deletable=1;editable=1;locked=0;connectable=1;container=0;" parent="5G7c4jUEA5Og9TPHIXhp-568" vertex="1">
          <mxGeometry x="85.86737588652483" y="6.283018867924511" width="3.141489361702128" height="13.613207547169813" as="geometry" />
        </mxCell>
        <mxCell id="5G7c4jUEA5Og9TPHIXhp-575" value="" style="sketch=0;html=1;strokeColor=#222222;shadow=0;fillColor=none;verticalAlign=top;labelPosition=center;verticalLabelPosition=bottom;shape=mxgraph.gcp2.a7_power;gradientColor=none;strokeWidth=0.1;movable=1;resizable=1;rotatable=1;deletable=1;editable=1;locked=0;connectable=1;container=0;" parent="5G7c4jUEA5Og9TPHIXhp-568" vertex="1">
          <mxGeometry x="105.76347517730497" y="7.330188679245282" width="3.141489361702128" height="3.1415094339622645" as="geometry" />
        </mxCell>
        <mxCell id="5G7c4jUEA5Og9TPHIXhp-576" value="" style="strokeWidth=0.1;html=1;shape=mxgraph.flowchart.database;whiteSpace=wrap;strokeColor=#222222;fillColor=none;movable=1;resizable=1;rotatable=1;deletable=1;editable=1;locked=0;connectable=1;container=0;" parent="5G7c4jUEA5Og9TPHIXhp-568" vertex="1">
          <mxGeometry x="105.76347517730497" y="16.754716981132077" width="3.141489361702128" height="3.1415094339622645" as="geometry" />
        </mxCell>
        <mxCell id="5G7c4jUEA5Og9TPHIXhp-577" value="" style="rounded=0;whiteSpace=wrap;html=1;strokeColor=none;fillColor=#333333;strokeWidth=0.5;movable=1;resizable=1;rotatable=1;deletable=1;editable=1;locked=0;connectable=1;container=0;" parent="5G7c4jUEA5Og9TPHIXhp-568" vertex="1">
          <mxGeometry x="3.141489361702128" y="3.1415094339622556" width="80.63156028368795" height="19.89622641509434" as="geometry" />
        </mxCell>
        <mxCell id="5G7c4jUEA5Og9TPHIXhp-578" value="" style="rounded=0;whiteSpace=wrap;html=1;strokeColor=none;fillColor=#2D2D2D;strokeWidth=0.2;movable=1;resizable=1;rotatable=1;deletable=1;editable=1;locked=0;connectable=1;container=0;" parent="5G7c4jUEA5Og9TPHIXhp-568" vertex="1">
          <mxGeometry x="69.11276595744681" y="5.759433962264154" width="4.188652482269504" height="14.660377358490567" as="geometry" />
        </mxCell>
        <mxCell id="5G7c4jUEA5Og9TPHIXhp-579" value="" style="rounded=0;whiteSpace=wrap;html=1;strokeColor=none;fillColor=#2D2D2D;strokeWidth=0.2;movable=1;resizable=1;rotatable=1;deletable=1;editable=1;locked=0;connectable=1;container=0;" parent="5G7c4jUEA5Og9TPHIXhp-568" vertex="1">
          <mxGeometry x="9.424468085106383" y="5.759433962264154" width="4.188652482269504" height="14.660377358490567" as="geometry" />
        </mxCell>
        <mxCell id="5G7c4jUEA5Og9TPHIXhp-580" value="" style="rounded=0;whiteSpace=wrap;html=1;strokeColor=none;fillColor=#222222;strokeWidth=0.2;movable=1;resizable=1;rotatable=1;deletable=1;editable=1;locked=0;connectable=1;container=0;" parent="5G7c4jUEA5Og9TPHIXhp-568" vertex="1">
          <mxGeometry x="13.613120567375887" y="5.759433962264154" width="55.499645390070924" height="2.0943396226415096" as="geometry" />
        </mxCell>
        <mxCell id="5G7c4jUEA5Og9TPHIXhp-581" value="" style="rounded=0;whiteSpace=wrap;html=1;strokeColor=none;fillColor=#222222;strokeWidth=0.2;movable=1;resizable=1;rotatable=1;deletable=1;editable=1;locked=0;connectable=1;container=0;" parent="5G7c4jUEA5Og9TPHIXhp-568" vertex="1">
          <mxGeometry x="13.613120567375887" y="9.948113207547152" width="55.499645390070924" height="2.0943396226415096" as="geometry" />
        </mxCell>
        <mxCell id="5G7c4jUEA5Og9TPHIXhp-582" value="" style="rounded=0;whiteSpace=wrap;html=1;strokeColor=none;fillColor=#222222;strokeWidth=0.2;movable=1;resizable=1;rotatable=1;deletable=1;editable=1;locked=0;connectable=1;container=0;" parent="5G7c4jUEA5Og9TPHIXhp-568" vertex="1">
          <mxGeometry x="13.613120567375887" y="14.136792452830178" width="55.499645390070924" height="2.0943396226415096" as="geometry" />
        </mxCell>
        <mxCell id="5G7c4jUEA5Og9TPHIXhp-583" value="" style="rounded=0;whiteSpace=wrap;html=1;strokeColor=none;fillColor=#222222;strokeWidth=0.2;movable=1;resizable=1;rotatable=1;deletable=1;editable=1;locked=0;connectable=1;container=0;" parent="5G7c4jUEA5Og9TPHIXhp-568" vertex="1">
          <mxGeometry x="13.613120567375887" y="18.325471698113205" width="55.499645390070924" height="2.0943396226415096" as="geometry" />
        </mxCell>
        <mxCell id="5G7c4jUEA5Og9TPHIXhp-584" value="" style="rounded=0;whiteSpace=wrap;html=1;strokeColor=none;fillColor=#2D2D2D;strokeWidth=0.2;movable=1;resizable=1;rotatable=1;deletable=1;editable=1;locked=0;connectable=1;container=0;" parent="5G7c4jUEA5Og9TPHIXhp-568" vertex="1">
          <mxGeometry x="30.367730496453902" y="5.759433962264154" width="2.094326241134752" height="14.660377358490567" as="geometry" />
        </mxCell>
        <mxCell id="5G7c4jUEA5Og9TPHIXhp-585" value="" style="rounded=0;whiteSpace=wrap;html=1;strokeColor=none;fillColor=#2D2D2D;strokeWidth=0.2;movable=1;resizable=1;rotatable=1;deletable=1;editable=1;locked=0;connectable=1;container=0;" parent="5G7c4jUEA5Og9TPHIXhp-568" vertex="1">
          <mxGeometry x="50.263829787234044" y="5.759433962264154" width="2.094326241134752" height="14.660377358490567" as="geometry" />
        </mxCell>
        <mxCell id="5G7c4jUEA5Og9TPHIXhp-586" value="" style="rounded=0;whiteSpace=wrap;html=1;strokeColor=none;fillColor=#333333;strokeWidth=0.5;movable=1;resizable=1;rotatable=1;deletable=1;editable=1;locked=0;connectable=1;container=0;" parent="5G7c4jUEA5Og9TPHIXhp-568" vertex="1">
          <mxGeometry x="13.613120567375887" y="16.23113207547169" width="55.499645390070924" height="2.0943396226415096" as="geometry" />
        </mxCell>
        <mxCell id="5G7c4jUEA5Og9TPHIXhp-587" value="" style="rounded=0;whiteSpace=wrap;html=1;strokeColor=none;fillColor=#333333;strokeWidth=0.5;movable=1;resizable=1;rotatable=1;deletable=1;editable=1;locked=0;connectable=1;container=0;" parent="5G7c4jUEA5Og9TPHIXhp-568" vertex="1">
          <mxGeometry x="13.613120567375887" y="12.042452830188665" width="55.499645390070924" height="2.0943396226415096" as="geometry" />
        </mxCell>
        <mxCell id="5G7c4jUEA5Og9TPHIXhp-588" value="" style="rounded=0;whiteSpace=wrap;html=1;strokeColor=none;fillColor=#333333;strokeWidth=0.5;movable=1;resizable=1;rotatable=1;deletable=1;editable=1;locked=0;connectable=1;container=0;" parent="5G7c4jUEA5Og9TPHIXhp-568" vertex="1">
          <mxGeometry x="13.613120567375887" y="7.853773584905639" width="55.499645390070924" height="2.0943396226415096" as="geometry" />
        </mxCell>
        <mxCell id="5G7c4jUEA5Og9TPHIXhp-589" value="" style="rounded=0;whiteSpace=wrap;html=1;strokeColor=none;fillColor=#333333;strokeWidth=0.5;movable=1;resizable=1;rotatable=1;deletable=1;editable=1;locked=0;connectable=1;container=0;" parent="5G7c4jUEA5Og9TPHIXhp-568" vertex="1">
          <mxGeometry x="110.99929078014183" width="109.95212765957447" height="26.179245283018872" as="geometry" />
        </mxCell>
        <mxCell id="5G7c4jUEA5Og9TPHIXhp-590" value="" style="rounded=0;whiteSpace=wrap;html=1;strokeColor=#222222;fillColor=#222222;strokeWidth=0.5;movable=1;resizable=1;rotatable=1;deletable=1;editable=1;locked=0;connectable=1;container=0;" parent="5G7c4jUEA5Og9TPHIXhp-568" vertex="1">
          <mxGeometry x="114.14078014184399" y="3.1415094339622556" width="101.57482269503546" height="19.89622641509434" as="geometry" />
        </mxCell>
        <mxCell id="5G7c4jUEA5Og9TPHIXhp-591" value="" style="rounded=1;whiteSpace=wrap;html=1;strokeColor=#222222;rotation=0;fillColor=#60a917;fontColor=#ffffff;movable=1;resizable=1;rotatable=1;deletable=1;editable=1;locked=0;connectable=1;container=0;direction=south;strokeWidth=0.1;" parent="5G7c4jUEA5Og9TPHIXhp-568" vertex="1">
          <mxGeometry x="216.76276595744685" y="20.943396226415075" width="3.141489361702128" height="4.188679245283019" as="geometry" />
        </mxCell>
        <mxCell id="5G7c4jUEA5Og9TPHIXhp-592" value="" style="rounded=1;whiteSpace=wrap;html=1;strokeColor=#222222;rotation=0;fillColor=#0050ef;fontColor=#ffffff;movable=1;resizable=1;rotatable=1;deletable=1;editable=1;locked=0;connectable=1;container=0;direction=south;strokeWidth=0.1;" parent="5G7c4jUEA5Og9TPHIXhp-568" vertex="1">
          <mxGeometry x="216.76276595744685" y="11.51886792452828" width="3.141489361702128" height="4.188679245283019" as="geometry" />
        </mxCell>
        <mxCell id="5G7c4jUEA5Og9TPHIXhp-593" value="" style="rounded=1;whiteSpace=wrap;html=1;strokeColor=none;fillColor=#0050ef;strokeWidth=0.5;fontColor=#ffffff;glass=0;movable=1;resizable=1;rotatable=1;deletable=1;editable=1;locked=0;connectable=1;container=0;" parent="5G7c4jUEA5Og9TPHIXhp-568" vertex="1">
          <mxGeometry x="189.53652482269507" y="6.283018867924511" width="8.377304964539007" height="13.613207547169813" as="geometry" />
        </mxCell>
        <mxCell id="5G7c4jUEA5Og9TPHIXhp-594" value="" style="shape=or;whiteSpace=wrap;html=1;fillColor=#0050ef;fontColor=#ffffff;strokeColor=none;movable=1;resizable=1;rotatable=1;deletable=1;editable=1;locked=0;connectable=1;container=0;" parent="5G7c4jUEA5Og9TPHIXhp-568" vertex="1">
          <mxGeometry x="196.86666666666667" y="6.283018867924511" width="3.141489361702128" height="13.613207547169813" as="geometry" />
        </mxCell>
        <mxCell id="5G7c4jUEA5Og9TPHIXhp-595" value="" style="sketch=0;html=1;strokeColor=#222222;shadow=0;fillColor=none;verticalAlign=top;labelPosition=center;verticalLabelPosition=bottom;shape=mxgraph.gcp2.a7_power;gradientColor=none;strokeWidth=0.1;movable=1;resizable=1;rotatable=1;deletable=1;editable=1;locked=0;connectable=1;container=0;" parent="5G7c4jUEA5Og9TPHIXhp-568" vertex="1">
          <mxGeometry x="216.76276595744685" y="7.330188679245282" width="3.141489361702128" height="3.1415094339622645" as="geometry" />
        </mxCell>
        <mxCell id="5G7c4jUEA5Og9TPHIXhp-596" value="" style="strokeWidth=0.1;html=1;shape=mxgraph.flowchart.database;whiteSpace=wrap;strokeColor=#222222;fillColor=none;movable=1;resizable=1;rotatable=1;deletable=1;editable=1;locked=0;connectable=1;container=0;" parent="5G7c4jUEA5Og9TPHIXhp-568" vertex="1">
          <mxGeometry x="216.76276595744685" y="16.754716981132077" width="3.141489361702128" height="3.1415094339622645" as="geometry" />
        </mxCell>
        <mxCell id="5G7c4jUEA5Og9TPHIXhp-597" value="" style="rounded=0;whiteSpace=wrap;html=1;strokeColor=none;fillColor=#333333;strokeWidth=0.5;movable=1;resizable=1;rotatable=1;deletable=1;editable=1;locked=0;connectable=1;container=0;" parent="5G7c4jUEA5Og9TPHIXhp-568" vertex="1">
          <mxGeometry x="114.14078014184399" y="3.1415094339622556" width="80.63156028368795" height="19.89622641509434" as="geometry" />
        </mxCell>
        <mxCell id="5G7c4jUEA5Og9TPHIXhp-598" value="" style="rounded=0;whiteSpace=wrap;html=1;strokeColor=none;fillColor=#2D2D2D;strokeWidth=0.2;movable=1;resizable=1;rotatable=1;deletable=1;editable=1;locked=0;connectable=1;container=0;" parent="5G7c4jUEA5Og9TPHIXhp-568" vertex="1">
          <mxGeometry x="180.11205673758866" y="5.759433962264154" width="4.188652482269504" height="14.660377358490567" as="geometry" />
        </mxCell>
        <mxCell id="5G7c4jUEA5Og9TPHIXhp-599" value="" style="rounded=0;whiteSpace=wrap;html=1;strokeColor=none;fillColor=#2D2D2D;strokeWidth=0.2;movable=1;resizable=1;rotatable=1;deletable=1;editable=1;locked=0;connectable=1;container=0;" parent="5G7c4jUEA5Og9TPHIXhp-568" vertex="1">
          <mxGeometry x="120.42375886524825" y="5.759433962264154" width="4.188652482269504" height="14.660377358490567" as="geometry" />
        </mxCell>
        <mxCell id="5G7c4jUEA5Og9TPHIXhp-600" value="" style="rounded=0;whiteSpace=wrap;html=1;strokeColor=none;fillColor=#222222;strokeWidth=0.2;movable=1;resizable=1;rotatable=1;deletable=1;editable=1;locked=0;connectable=1;container=0;" parent="5G7c4jUEA5Og9TPHIXhp-568" vertex="1">
          <mxGeometry x="124.61241134751775" y="5.759433962264154" width="55.499645390070924" height="2.0943396226415096" as="geometry" />
        </mxCell>
        <mxCell id="5G7c4jUEA5Og9TPHIXhp-601" value="" style="rounded=0;whiteSpace=wrap;html=1;strokeColor=none;fillColor=#222222;strokeWidth=0.2;movable=1;resizable=1;rotatable=1;deletable=1;editable=1;locked=0;connectable=1;container=0;" parent="5G7c4jUEA5Og9TPHIXhp-568" vertex="1">
          <mxGeometry x="124.61241134751775" y="9.948113207547152" width="55.499645390070924" height="2.0943396226415096" as="geometry" />
        </mxCell>
        <mxCell id="5G7c4jUEA5Og9TPHIXhp-602" value="" style="rounded=0;whiteSpace=wrap;html=1;strokeColor=none;fillColor=#222222;strokeWidth=0.2;movable=1;resizable=1;rotatable=1;deletable=1;editable=1;locked=0;connectable=1;container=0;" parent="5G7c4jUEA5Og9TPHIXhp-568" vertex="1">
          <mxGeometry x="124.61241134751775" y="14.136792452830178" width="55.499645390070924" height="2.0943396226415096" as="geometry" />
        </mxCell>
        <mxCell id="5G7c4jUEA5Og9TPHIXhp-603" value="" style="rounded=0;whiteSpace=wrap;html=1;strokeColor=none;fillColor=#222222;strokeWidth=0.2;movable=1;resizable=1;rotatable=1;deletable=1;editable=1;locked=0;connectable=1;container=0;" parent="5G7c4jUEA5Og9TPHIXhp-568" vertex="1">
          <mxGeometry x="124.61241134751775" y="18.325471698113205" width="55.499645390070924" height="2.0943396226415096" as="geometry" />
        </mxCell>
        <mxCell id="5G7c4jUEA5Og9TPHIXhp-604" value="" style="rounded=0;whiteSpace=wrap;html=1;strokeColor=none;fillColor=#2D2D2D;strokeWidth=0.2;movable=1;resizable=1;rotatable=1;deletable=1;editable=1;locked=0;connectable=1;container=0;" parent="5G7c4jUEA5Og9TPHIXhp-568" vertex="1">
          <mxGeometry x="141.36702127659578" y="5.759433962264154" width="2.094326241134752" height="14.660377358490567" as="geometry" />
        </mxCell>
        <mxCell id="5G7c4jUEA5Og9TPHIXhp-605" value="" style="rounded=0;whiteSpace=wrap;html=1;strokeColor=none;fillColor=#2D2D2D;strokeWidth=0.2;movable=1;resizable=1;rotatable=1;deletable=1;editable=1;locked=0;connectable=1;container=0;" parent="5G7c4jUEA5Og9TPHIXhp-568" vertex="1">
          <mxGeometry x="161.2631205673759" y="5.759433962264154" width="2.094326241134752" height="14.660377358490567" as="geometry" />
        </mxCell>
        <mxCell id="5G7c4jUEA5Og9TPHIXhp-606" value="" style="rounded=0;whiteSpace=wrap;html=1;strokeColor=none;fillColor=#333333;strokeWidth=0.5;movable=1;resizable=1;rotatable=1;deletable=1;editable=1;locked=0;connectable=1;container=0;" parent="5G7c4jUEA5Og9TPHIXhp-568" vertex="1">
          <mxGeometry x="124.61241134751775" y="16.23113207547169" width="55.499645390070924" height="2.0943396226415096" as="geometry" />
        </mxCell>
        <mxCell id="5G7c4jUEA5Og9TPHIXhp-607" value="" style="rounded=0;whiteSpace=wrap;html=1;strokeColor=none;fillColor=#333333;strokeWidth=0.5;movable=1;resizable=1;rotatable=1;deletable=1;editable=1;locked=0;connectable=1;container=0;" parent="5G7c4jUEA5Og9TPHIXhp-568" vertex="1">
          <mxGeometry x="124.61241134751775" y="12.042452830188665" width="55.499645390070924" height="2.0943396226415096" as="geometry" />
        </mxCell>
        <mxCell id="5G7c4jUEA5Og9TPHIXhp-608" value="" style="rounded=0;whiteSpace=wrap;html=1;strokeColor=none;fillColor=#333333;strokeWidth=0.5;movable=1;resizable=1;rotatable=1;deletable=1;editable=1;locked=0;connectable=1;container=0;" parent="5G7c4jUEA5Og9TPHIXhp-568" vertex="1">
          <mxGeometry x="124.61241134751775" y="7.853773584905639" width="55.499645390070924" height="2.0943396226415096" as="geometry" />
        </mxCell>
        <mxCell id="5G7c4jUEA5Og9TPHIXhp-609" value="" style="rounded=0;whiteSpace=wrap;html=1;strokeColor=none;fillColor=#333333;strokeWidth=0.5;movable=1;resizable=1;rotatable=1;deletable=1;editable=1;locked=0;connectable=1;container=0;" parent="5G7c4jUEA5Og9TPHIXhp-568" vertex="1">
          <mxGeometry x="221.9985815602837" width="109.95212765957447" height="26.179245283018872" as="geometry" />
        </mxCell>
        <mxCell id="5G7c4jUEA5Og9TPHIXhp-610" value="" style="rounded=0;whiteSpace=wrap;html=1;strokeColor=#222222;fillColor=#222222;strokeWidth=0.5;movable=1;resizable=1;rotatable=1;deletable=1;editable=1;locked=0;connectable=1;container=0;" parent="5G7c4jUEA5Og9TPHIXhp-568" vertex="1">
          <mxGeometry x="225.14007092198585" y="3.1415094339622556" width="101.57482269503546" height="19.89622641509434" as="geometry" />
        </mxCell>
        <mxCell id="5G7c4jUEA5Og9TPHIXhp-611" value="" style="rounded=1;whiteSpace=wrap;html=1;strokeColor=#222222;rotation=0;fillColor=#60a917;fontColor=#ffffff;movable=1;resizable=1;rotatable=1;deletable=1;editable=1;locked=0;connectable=1;container=0;direction=south;strokeWidth=0.1;" parent="5G7c4jUEA5Og9TPHIXhp-568" vertex="1">
          <mxGeometry x="327.76205673758864" y="20.943396226415075" width="3.141489361702128" height="4.188679245283019" as="geometry" />
        </mxCell>
        <mxCell id="5G7c4jUEA5Og9TPHIXhp-612" value="" style="rounded=1;whiteSpace=wrap;html=1;strokeColor=#222222;rotation=0;fillColor=#0050ef;fontColor=#ffffff;movable=1;resizable=1;rotatable=1;deletable=1;editable=1;locked=0;connectable=1;container=0;direction=south;strokeWidth=0.1;" parent="5G7c4jUEA5Og9TPHIXhp-568" vertex="1">
          <mxGeometry x="327.76205673758864" y="11.51886792452828" width="3.141489361702128" height="4.188679245283019" as="geometry" />
        </mxCell>
        <mxCell id="5G7c4jUEA5Og9TPHIXhp-613" value="" style="rounded=1;whiteSpace=wrap;html=1;strokeColor=none;fillColor=#0050ef;strokeWidth=0.5;fontColor=#ffffff;glass=0;movable=1;resizable=1;rotatable=1;deletable=1;editable=1;locked=0;connectable=1;container=0;" parent="5G7c4jUEA5Og9TPHIXhp-568" vertex="1">
          <mxGeometry x="300.5358156028369" y="6.283018867924511" width="8.377304964539007" height="13.613207547169813" as="geometry" />
        </mxCell>
        <mxCell id="5G7c4jUEA5Og9TPHIXhp-614" value="" style="shape=or;whiteSpace=wrap;html=1;fillColor=#0050ef;fontColor=#ffffff;strokeColor=none;movable=1;resizable=1;rotatable=1;deletable=1;editable=1;locked=0;connectable=1;container=0;" parent="5G7c4jUEA5Og9TPHIXhp-568" vertex="1">
          <mxGeometry x="307.8659574468085" y="6.283018867924511" width="3.141489361702128" height="13.613207547169813" as="geometry" />
        </mxCell>
        <mxCell id="5G7c4jUEA5Og9TPHIXhp-615" value="" style="sketch=0;html=1;strokeColor=#222222;shadow=0;fillColor=none;verticalAlign=top;labelPosition=center;verticalLabelPosition=bottom;shape=mxgraph.gcp2.a7_power;gradientColor=none;strokeWidth=0.1;movable=1;resizable=1;rotatable=1;deletable=1;editable=1;locked=0;connectable=1;container=0;" parent="5G7c4jUEA5Og9TPHIXhp-568" vertex="1">
          <mxGeometry x="327.76205673758864" y="7.330188679245282" width="3.141489361702128" height="3.1415094339622645" as="geometry" />
        </mxCell>
        <mxCell id="5G7c4jUEA5Og9TPHIXhp-616" value="" style="strokeWidth=0.1;html=1;shape=mxgraph.flowchart.database;whiteSpace=wrap;strokeColor=#222222;fillColor=none;movable=1;resizable=1;rotatable=1;deletable=1;editable=1;locked=0;connectable=1;container=0;" parent="5G7c4jUEA5Og9TPHIXhp-568" vertex="1">
          <mxGeometry x="327.76205673758864" y="16.754716981132077" width="3.141489361702128" height="3.1415094339622645" as="geometry" />
        </mxCell>
        <mxCell id="5G7c4jUEA5Og9TPHIXhp-617" value="" style="rounded=0;whiteSpace=wrap;html=1;strokeColor=none;fillColor=#333333;strokeWidth=0.5;movable=1;resizable=1;rotatable=1;deletable=1;editable=1;locked=0;connectable=1;container=0;" parent="5G7c4jUEA5Og9TPHIXhp-568" vertex="1">
          <mxGeometry x="225.14007092198585" y="3.1415094339622556" width="80.63156028368795" height="19.89622641509434" as="geometry" />
        </mxCell>
        <mxCell id="5G7c4jUEA5Og9TPHIXhp-618" value="" style="rounded=0;whiteSpace=wrap;html=1;strokeColor=none;fillColor=#2D2D2D;strokeWidth=0.2;movable=1;resizable=1;rotatable=1;deletable=1;editable=1;locked=0;connectable=1;container=0;" parent="5G7c4jUEA5Og9TPHIXhp-568" vertex="1">
          <mxGeometry x="291.1113475177305" y="5.759433962264154" width="4.188652482269504" height="14.660377358490567" as="geometry" />
        </mxCell>
        <mxCell id="5G7c4jUEA5Og9TPHIXhp-619" value="" style="rounded=0;whiteSpace=wrap;html=1;strokeColor=none;fillColor=#2D2D2D;strokeWidth=0.2;movable=1;resizable=1;rotatable=1;deletable=1;editable=1;locked=0;connectable=1;container=0;" parent="5G7c4jUEA5Og9TPHIXhp-568" vertex="1">
          <mxGeometry x="231.4230496453901" y="5.759433962264154" width="4.188652482269504" height="14.660377358490567" as="geometry" />
        </mxCell>
        <mxCell id="5G7c4jUEA5Og9TPHIXhp-620" value="" style="rounded=0;whiteSpace=wrap;html=1;strokeColor=none;fillColor=#222222;strokeWidth=0.2;movable=1;resizable=1;rotatable=1;deletable=1;editable=1;locked=0;connectable=1;container=0;" parent="5G7c4jUEA5Og9TPHIXhp-568" vertex="1">
          <mxGeometry x="235.6117021276596" y="5.759433962264154" width="55.499645390070924" height="2.0943396226415096" as="geometry" />
        </mxCell>
        <mxCell id="5G7c4jUEA5Og9TPHIXhp-621" value="" style="rounded=0;whiteSpace=wrap;html=1;strokeColor=none;fillColor=#222222;strokeWidth=0.2;movable=1;resizable=1;rotatable=1;deletable=1;editable=1;locked=0;connectable=1;container=0;" parent="5G7c4jUEA5Og9TPHIXhp-568" vertex="1">
          <mxGeometry x="235.6117021276596" y="9.948113207547152" width="55.499645390070924" height="2.0943396226415096" as="geometry" />
        </mxCell>
        <mxCell id="5G7c4jUEA5Og9TPHIXhp-622" value="" style="rounded=0;whiteSpace=wrap;html=1;strokeColor=none;fillColor=#222222;strokeWidth=0.2;movable=1;resizable=1;rotatable=1;deletable=1;editable=1;locked=0;connectable=1;container=0;" parent="5G7c4jUEA5Og9TPHIXhp-568" vertex="1">
          <mxGeometry x="235.6117021276596" y="14.136792452830178" width="55.499645390070924" height="2.0943396226415096" as="geometry" />
        </mxCell>
        <mxCell id="5G7c4jUEA5Og9TPHIXhp-623" value="" style="rounded=0;whiteSpace=wrap;html=1;strokeColor=none;fillColor=#222222;strokeWidth=0.2;movable=1;resizable=1;rotatable=1;deletable=1;editable=1;locked=0;connectable=1;container=0;" parent="5G7c4jUEA5Og9TPHIXhp-568" vertex="1">
          <mxGeometry x="235.6117021276596" y="18.325471698113205" width="55.499645390070924" height="2.0943396226415096" as="geometry" />
        </mxCell>
        <mxCell id="5G7c4jUEA5Og9TPHIXhp-624" value="" style="rounded=0;whiteSpace=wrap;html=1;strokeColor=none;fillColor=#2D2D2D;strokeWidth=0.2;movable=1;resizable=1;rotatable=1;deletable=1;editable=1;locked=0;connectable=1;container=0;" parent="5G7c4jUEA5Og9TPHIXhp-568" vertex="1">
          <mxGeometry x="252.36631205673763" y="5.759433962264154" width="2.094326241134752" height="14.660377358490567" as="geometry" />
        </mxCell>
        <mxCell id="5G7c4jUEA5Og9TPHIXhp-625" value="" style="rounded=0;whiteSpace=wrap;html=1;strokeColor=none;fillColor=#2D2D2D;strokeWidth=0.2;movable=1;resizable=1;rotatable=1;deletable=1;editable=1;locked=0;connectable=1;container=0;" parent="5G7c4jUEA5Og9TPHIXhp-568" vertex="1">
          <mxGeometry x="272.26241134751774" y="5.759433962264154" width="2.094326241134752" height="14.660377358490567" as="geometry" />
        </mxCell>
        <mxCell id="5G7c4jUEA5Og9TPHIXhp-626" value="" style="rounded=0;whiteSpace=wrap;html=1;strokeColor=none;fillColor=#333333;strokeWidth=0.5;movable=1;resizable=1;rotatable=1;deletable=1;editable=1;locked=0;connectable=1;container=0;" parent="5G7c4jUEA5Og9TPHIXhp-568" vertex="1">
          <mxGeometry x="235.6117021276596" y="16.23113207547169" width="55.499645390070924" height="2.0943396226415096" as="geometry" />
        </mxCell>
        <mxCell id="5G7c4jUEA5Og9TPHIXhp-627" value="" style="rounded=0;whiteSpace=wrap;html=1;strokeColor=none;fillColor=#333333;strokeWidth=0.5;movable=1;resizable=1;rotatable=1;deletable=1;editable=1;locked=0;connectable=1;container=0;" parent="5G7c4jUEA5Og9TPHIXhp-568" vertex="1">
          <mxGeometry x="235.6117021276596" y="12.042452830188665" width="55.499645390070924" height="2.0943396226415096" as="geometry" />
        </mxCell>
        <mxCell id="5G7c4jUEA5Og9TPHIXhp-628" value="" style="rounded=0;whiteSpace=wrap;html=1;strokeColor=none;fillColor=#333333;strokeWidth=0.5;movable=1;resizable=1;rotatable=1;deletable=1;editable=1;locked=0;connectable=1;container=0;" parent="5G7c4jUEA5Og9TPHIXhp-568" vertex="1">
          <mxGeometry x="235.6117021276596" y="7.853773584905639" width="55.499645390070924" height="2.0943396226415096" as="geometry" />
        </mxCell>
        <mxCell id="5G7c4jUEA5Og9TPHIXhp-629" value="" style="rounded=0;whiteSpace=wrap;html=1;strokeColor=none;fillColor=#333333;strokeWidth=0.5;movable=1;resizable=1;rotatable=1;deletable=1;editable=1;locked=0;connectable=1;container=0;" parent="5G7c4jUEA5Og9TPHIXhp-568" vertex="1">
          <mxGeometry x="332.99787234042554" width="109.95212765957447" height="26.179245283018872" as="geometry" />
        </mxCell>
        <mxCell id="5G7c4jUEA5Og9TPHIXhp-630" value="" style="rounded=0;whiteSpace=wrap;html=1;strokeColor=#222222;fillColor=#222222;strokeWidth=0.5;movable=1;resizable=1;rotatable=1;deletable=1;editable=1;locked=0;connectable=1;container=0;" parent="5G7c4jUEA5Og9TPHIXhp-568" vertex="1">
          <mxGeometry x="336.13936170212764" y="3.1415094339622556" width="101.57482269503546" height="19.89622641509434" as="geometry" />
        </mxCell>
        <mxCell id="5G7c4jUEA5Og9TPHIXhp-631" value="" style="rounded=1;whiteSpace=wrap;html=1;strokeColor=#222222;rotation=0;fillColor=#60a917;fontColor=#ffffff;movable=1;resizable=1;rotatable=1;deletable=1;editable=1;locked=0;connectable=1;container=0;direction=south;strokeWidth=0.1;" parent="5G7c4jUEA5Og9TPHIXhp-568" vertex="1">
          <mxGeometry x="438.76134751773054" y="20.943396226415075" width="3.141489361702128" height="4.188679245283019" as="geometry" />
        </mxCell>
        <mxCell id="5G7c4jUEA5Og9TPHIXhp-632" value="" style="rounded=1;whiteSpace=wrap;html=1;strokeColor=#222222;rotation=0;fillColor=#0050ef;fontColor=#ffffff;movable=1;resizable=1;rotatable=1;deletable=1;editable=1;locked=0;connectable=1;container=0;direction=south;strokeWidth=0.1;" parent="5G7c4jUEA5Og9TPHIXhp-568" vertex="1">
          <mxGeometry x="438.76134751773054" y="11.51886792452828" width="3.141489361702128" height="4.188679245283019" as="geometry" />
        </mxCell>
        <mxCell id="5G7c4jUEA5Og9TPHIXhp-633" value="" style="rounded=1;whiteSpace=wrap;html=1;strokeColor=none;fillColor=#0050ef;strokeWidth=0.5;fontColor=#ffffff;glass=0;movable=1;resizable=1;rotatable=1;deletable=1;editable=1;locked=0;connectable=1;container=0;" parent="5G7c4jUEA5Og9TPHIXhp-568" vertex="1">
          <mxGeometry x="411.5351063829787" y="6.283018867924511" width="8.377304964539007" height="13.613207547169813" as="geometry" />
        </mxCell>
        <mxCell id="5G7c4jUEA5Og9TPHIXhp-634" value="" style="shape=or;whiteSpace=wrap;html=1;fillColor=#0050ef;fontColor=#ffffff;strokeColor=none;movable=1;resizable=1;rotatable=1;deletable=1;editable=1;locked=0;connectable=1;container=0;" parent="5G7c4jUEA5Og9TPHIXhp-568" vertex="1">
          <mxGeometry x="418.86524822695037" y="6.283018867924511" width="3.141489361702128" height="13.613207547169813" as="geometry" />
        </mxCell>
        <mxCell id="5G7c4jUEA5Og9TPHIXhp-635" value="" style="sketch=0;html=1;strokeColor=#222222;shadow=0;fillColor=none;verticalAlign=top;labelPosition=center;verticalLabelPosition=bottom;shape=mxgraph.gcp2.a7_power;gradientColor=none;strokeWidth=0.1;movable=1;resizable=1;rotatable=1;deletable=1;editable=1;locked=0;connectable=1;container=0;" parent="5G7c4jUEA5Og9TPHIXhp-568" vertex="1">
          <mxGeometry x="438.76134751773054" y="7.330188679245282" width="3.141489361702128" height="3.1415094339622645" as="geometry" />
        </mxCell>
        <mxCell id="5G7c4jUEA5Og9TPHIXhp-636" value="" style="strokeWidth=0.1;html=1;shape=mxgraph.flowchart.database;whiteSpace=wrap;strokeColor=#222222;fillColor=none;movable=1;resizable=1;rotatable=1;deletable=1;editable=1;locked=0;connectable=1;container=0;" parent="5G7c4jUEA5Og9TPHIXhp-568" vertex="1">
          <mxGeometry x="438.76134751773054" y="16.754716981132077" width="3.141489361702128" height="3.1415094339622645" as="geometry" />
        </mxCell>
        <mxCell id="5G7c4jUEA5Og9TPHIXhp-637" value="" style="rounded=0;whiteSpace=wrap;html=1;strokeColor=none;fillColor=#333333;strokeWidth=0.5;movable=1;resizable=1;rotatable=1;deletable=1;editable=1;locked=0;connectable=1;container=0;" parent="5G7c4jUEA5Og9TPHIXhp-568" vertex="1">
          <mxGeometry x="336.13936170212764" y="3.1415094339622556" width="80.63156028368795" height="19.89622641509434" as="geometry" />
        </mxCell>
        <mxCell id="5G7c4jUEA5Og9TPHIXhp-638" value="" style="rounded=0;whiteSpace=wrap;html=1;strokeColor=none;fillColor=#2D2D2D;strokeWidth=0.2;movable=1;resizable=1;rotatable=1;deletable=1;editable=1;locked=0;connectable=1;container=0;" parent="5G7c4jUEA5Og9TPHIXhp-568" vertex="1">
          <mxGeometry x="402.11063829787236" y="5.759433962264154" width="4.188652482269504" height="14.660377358490567" as="geometry" />
        </mxCell>
        <mxCell id="5G7c4jUEA5Og9TPHIXhp-639" value="" style="rounded=0;whiteSpace=wrap;html=1;strokeColor=none;fillColor=#2D2D2D;strokeWidth=0.2;movable=1;resizable=1;rotatable=1;deletable=1;editable=1;locked=0;connectable=1;container=0;" parent="5G7c4jUEA5Og9TPHIXhp-568" vertex="1">
          <mxGeometry x="342.42234042553196" y="5.759433962264154" width="4.188652482269504" height="14.660377358490567" as="geometry" />
        </mxCell>
        <mxCell id="5G7c4jUEA5Og9TPHIXhp-640" value="" style="rounded=0;whiteSpace=wrap;html=1;strokeColor=none;fillColor=#222222;strokeWidth=0.2;movable=1;resizable=1;rotatable=1;deletable=1;editable=1;locked=0;connectable=1;container=0;" parent="5G7c4jUEA5Og9TPHIXhp-568" vertex="1">
          <mxGeometry x="346.61099290780146" y="5.759433962264154" width="55.499645390070924" height="2.0943396226415096" as="geometry" />
        </mxCell>
        <mxCell id="5G7c4jUEA5Og9TPHIXhp-641" value="" style="rounded=0;whiteSpace=wrap;html=1;strokeColor=none;fillColor=#222222;strokeWidth=0.2;movable=1;resizable=1;rotatable=1;deletable=1;editable=1;locked=0;connectable=1;container=0;" parent="5G7c4jUEA5Og9TPHIXhp-568" vertex="1">
          <mxGeometry x="346.61099290780146" y="9.948113207547152" width="55.499645390070924" height="2.0943396226415096" as="geometry" />
        </mxCell>
        <mxCell id="5G7c4jUEA5Og9TPHIXhp-642" value="" style="rounded=0;whiteSpace=wrap;html=1;strokeColor=none;fillColor=#222222;strokeWidth=0.2;movable=1;resizable=1;rotatable=1;deletable=1;editable=1;locked=0;connectable=1;container=0;" parent="5G7c4jUEA5Og9TPHIXhp-568" vertex="1">
          <mxGeometry x="346.61099290780146" y="14.136792452830178" width="55.499645390070924" height="2.0943396226415096" as="geometry" />
        </mxCell>
        <mxCell id="5G7c4jUEA5Og9TPHIXhp-643" value="" style="rounded=0;whiteSpace=wrap;html=1;strokeColor=none;fillColor=#222222;strokeWidth=0.2;movable=1;resizable=1;rotatable=1;deletable=1;editable=1;locked=0;connectable=1;container=0;" parent="5G7c4jUEA5Og9TPHIXhp-568" vertex="1">
          <mxGeometry x="346.61099290780146" y="18.325471698113205" width="55.499645390070924" height="2.0943396226415096" as="geometry" />
        </mxCell>
        <mxCell id="5G7c4jUEA5Og9TPHIXhp-644" value="" style="rounded=0;whiteSpace=wrap;html=1;strokeColor=none;fillColor=#2D2D2D;strokeWidth=0.2;movable=1;resizable=1;rotatable=1;deletable=1;editable=1;locked=0;connectable=1;container=0;" parent="5G7c4jUEA5Og9TPHIXhp-568" vertex="1">
          <mxGeometry x="363.3656028368795" y="5.759433962264154" width="2.094326241134752" height="14.660377358490567" as="geometry" />
        </mxCell>
        <mxCell id="5G7c4jUEA5Og9TPHIXhp-645" value="" style="rounded=0;whiteSpace=wrap;html=1;strokeColor=none;fillColor=#2D2D2D;strokeWidth=0.2;movable=1;resizable=1;rotatable=1;deletable=1;editable=1;locked=0;connectable=1;container=0;" parent="5G7c4jUEA5Og9TPHIXhp-568" vertex="1">
          <mxGeometry x="383.2617021276596" y="5.759433962264154" width="2.094326241134752" height="14.660377358490567" as="geometry" />
        </mxCell>
        <mxCell id="5G7c4jUEA5Og9TPHIXhp-646" value="" style="rounded=0;whiteSpace=wrap;html=1;strokeColor=none;fillColor=#333333;strokeWidth=0.5;movable=1;resizable=1;rotatable=1;deletable=1;editable=1;locked=0;connectable=1;container=0;" parent="5G7c4jUEA5Og9TPHIXhp-568" vertex="1">
          <mxGeometry x="346.61099290780146" y="16.23113207547169" width="55.499645390070924" height="2.0943396226415096" as="geometry" />
        </mxCell>
        <mxCell id="5G7c4jUEA5Og9TPHIXhp-647" value="" style="rounded=0;whiteSpace=wrap;html=1;strokeColor=none;fillColor=#333333;strokeWidth=0.5;movable=1;resizable=1;rotatable=1;deletable=1;editable=1;locked=0;connectable=1;container=0;" parent="5G7c4jUEA5Og9TPHIXhp-568" vertex="1">
          <mxGeometry x="346.61099290780146" y="12.042452830188665" width="55.499645390070924" height="2.0943396226415096" as="geometry" />
        </mxCell>
        <mxCell id="5G7c4jUEA5Og9TPHIXhp-648" value="" style="rounded=0;whiteSpace=wrap;html=1;strokeColor=none;fillColor=#333333;strokeWidth=0.5;movable=1;resizable=1;rotatable=1;deletable=1;editable=1;locked=0;connectable=1;container=0;" parent="5G7c4jUEA5Og9TPHIXhp-568" vertex="1">
          <mxGeometry x="346.61099290780146" y="7.853773584905639" width="55.499645390070924" height="2.0943396226415096" as="geometry" />
        </mxCell>
        <mxCell id="jP2WbbBxQBNUkDRbYnSl-206" value="" style="rounded=0;whiteSpace=wrap;html=1;strokeColor=#aaaaaa;fillColor=#bfbfbf;strokeWidth=1;movable=1;resizable=1;rotatable=1;deletable=1;editable=1;locked=0;connectable=1;container=0;" parent="BZf6F3fDbPlMnJJBv7aN-2" vertex="1">
          <mxGeometry x="7.996250000000002" y="44.450000000000024" width="10" height="44.45" as="geometry" />
        </mxCell>
        <mxCell id="5G7c4jUEA5Og9TPHIXhp-649" value="" style="group" parent="BZf6F3fDbPlMnJJBv7aN-2" vertex="1" connectable="0">
          <mxGeometry x="468.59625" y="63.68" width="10" height="6" as="geometry" />
        </mxCell>
        <mxCell id="5G7c4jUEA5Og9TPHIXhp-650" value="" style="rounded=0;whiteSpace=wrap;html=1;fillColor=#000000;fontColor=#ffffff;strokeColor=none;container=0;" parent="5G7c4jUEA5Og9TPHIXhp-649" vertex="1">
          <mxGeometry x="3" width="4" height="6" as="geometry" />
        </mxCell>
        <mxCell id="5G7c4jUEA5Og9TPHIXhp-651" value="" style="ellipse;whiteSpace=wrap;html=1;aspect=fixed;strokeColor=none;fillColor=#000000;" parent="5G7c4jUEA5Og9TPHIXhp-649" vertex="1">
          <mxGeometry x="4" width="6" height="6" as="geometry" />
        </mxCell>
        <mxCell id="5G7c4jUEA5Og9TPHIXhp-652" value="" style="ellipse;whiteSpace=wrap;html=1;aspect=fixed;strokeColor=none;fillColor=#000000;" parent="5G7c4jUEA5Og9TPHIXhp-649" vertex="1">
          <mxGeometry width="6" height="6" as="geometry" />
        </mxCell>
        <mxCell id="5G7c4jUEA5Og9TPHIXhp-653" value="" style="rounded=0;whiteSpace=wrap;html=1;strokeColor=#aaaaaa;fillColor=#bfbfbf;strokeWidth=1;movable=1;resizable=1;rotatable=1;deletable=1;editable=1;locked=0;connectable=1;container=0;" parent="BZf6F3fDbPlMnJJBv7aN-2" vertex="1">
          <mxGeometry x="464.59624999999994" y="44.45" width="10" height="44.45" as="geometry" />
        </mxCell>
        <mxCell id="5G7c4jUEA5Og9TPHIXhp-655" value="" style="rounded=0;whiteSpace=wrap;html=1;strokeColor=#aaaaaa;fillColor=#bfbfbf;strokeWidth=1;movable=1;resizable=1;rotatable=1;deletable=1;editable=1;locked=0;connectable=1;container=0;" parent="BZf6F3fDbPlMnJJBv7aN-2" vertex="1">
          <mxGeometry width="18" height="44.45" as="geometry" />
        </mxCell>
        <mxCell id="5G7c4jUEA5Og9TPHIXhp-656" value="" style="rounded=0;whiteSpace=wrap;html=1;strokeColor=#aaaaaa;fillColor=#bfbfbf;strokeWidth=1;movable=1;resizable=1;rotatable=1;deletable=1;editable=1;locked=0;connectable=1;container=0;" parent="BZf6F3fDbPlMnJJBv7aN-2" vertex="1">
          <mxGeometry x="464.6" width="18" height="44.45" as="geometry" />
        </mxCell>
        <mxCell id="5G7c4jUEA5Og9TPHIXhp-657" value="" style="sketch=0;aspect=fixed;pointerEvents=1;shadow=0;dashed=0;html=1;strokeColor=none;labelPosition=center;verticalLabelPosition=bottom;verticalAlign=top;align=center;fillColor=#000000;shape=mxgraph.mscae.enterprise.usb;rotation=-90;" parent="BZf6F3fDbPlMnJJBv7aN-2" vertex="1">
          <mxGeometry x="2" y="7.52" width="6" height="2.76" as="geometry" />
        </mxCell>
        <mxCell id="5G7c4jUEA5Og9TPHIXhp-658" value="" style="sketch=0;aspect=fixed;pointerEvents=1;shadow=0;dashed=0;html=1;strokeColor=none;labelPosition=center;verticalLabelPosition=bottom;verticalAlign=top;align=center;fillColor=#000000;shape=mxgraph.mscae.enterprise.usb;rotation=-90;" parent="BZf6F3fDbPlMnJJBv7aN-2" vertex="1">
          <mxGeometry x="2" y="34.18" width="6" height="2.76" as="geometry" />
        </mxCell>
        <mxCell id="BZf6F3fDbPlMnJJBv7aN-1" value="" style="group" vertex="1" connectable="0" parent="BZf6F3fDbPlMnJJBv7aN-2">
          <mxGeometry x="466.1" y="4.955652173913045" width="15" height="34.53478260869566" as="geometry" />
        </mxCell>
        <mxCell id="5G7c4jUEA5Og9TPHIXhp-661" value="" style="ellipse;whiteSpace=wrap;html=1;strokeColor=none;fillColor=#60a917;fontColor=#ffffff;movable=1;resizable=1;rotatable=1;deletable=1;editable=1;locked=0;connectable=1;container=0;aspect=fixed;" parent="BZf6F3fDbPlMnJJBv7aN-1" vertex="1">
          <mxGeometry x="12" y="18.00304347826087" width="3" height="3" as="geometry" />
        </mxCell>
        <mxCell id="5G7c4jUEA5Og9TPHIXhp-668" value="" style="ellipse;whiteSpace=wrap;html=1;strokeColor=#000000;fillColor=#bfbfbf;fontColor=#ffffff;movable=1;resizable=1;rotatable=1;deletable=1;editable=1;locked=0;connectable=1;container=0;strokeWidth=0.2;aspect=fixed;" parent="BZf6F3fDbPlMnJJBv7aN-1" vertex="1">
          <mxGeometry x="8.999999999999943" y="23.334782608695654" width="5" height="5" as="geometry" />
        </mxCell>
        <mxCell id="5G7c4jUEA5Og9TPHIXhp-671" value="" style="sketch=0;html=1;strokeColor=#000000;shadow=0;fillColor=none;verticalAlign=top;labelPosition=center;verticalLabelPosition=bottom;shape=mxgraph.gcp2.a7_power;gradientColor=none;movable=1;resizable=1;rotatable=1;deletable=1;editable=1;locked=0;connectable=1;container=0;strokeWidth=0.1;" parent="BZf6F3fDbPlMnJJBv7aN-1" vertex="1">
          <mxGeometry x="4.5" y="24.36" width="3" height="3" as="geometry" />
        </mxCell>
        <mxCell id="5G7c4jUEA5Og9TPHIXhp-672" value="" style="verticalLabelPosition=bottom;shadow=0;dashed=0;align=center;html=1;verticalAlign=top;shape=mxgraph.electrical.radio.loop_antenna;strokeColor=#000000;fillColor=none;strokeWidth=0.1;rotation=-180;movable=1;resizable=1;rotatable=1;deletable=1;editable=1;locked=0;connectable=1;container=0;" parent="BZf6F3fDbPlMnJJBv7aN-1" vertex="1">
          <mxGeometry x="4.500000000000682" y="30.53000000000001" width="3" height="3" as="geometry" />
        </mxCell>
        <mxCell id="5G7c4jUEA5Og9TPHIXhp-673" value="" style="strokeWidth=0.1;html=1;shape=mxgraph.flowchart.database;whiteSpace=wrap;strokeColor=#000000;fillColor=none;movable=1;resizable=1;rotatable=1;deletable=1;editable=1;locked=0;connectable=1;container=0;" parent="BZf6F3fDbPlMnJJBv7aN-1" vertex="1">
          <mxGeometry y="3.000000000000007" width="3" height="3" as="geometry" />
        </mxCell>
        <mxCell id="5G7c4jUEA5Og9TPHIXhp-676" value="" style="sketch=0;pointerEvents=1;shadow=0;dashed=0;html=1;strokeColor=none;fillColor=#000000;labelPosition=center;verticalLabelPosition=bottom;verticalAlign=top;align=center;outlineConnect=0;shape=mxgraph.vvd.infrastructure;movable=1;resizable=1;rotatable=1;deletable=1;editable=1;locked=0;connectable=1;container=0;" parent="BZf6F3fDbPlMnJJBv7aN-1" vertex="1">
          <mxGeometry x="4" y="6" width="3" height="3" as="geometry" />
        </mxCell>
        <mxCell id="5G7c4jUEA5Og9TPHIXhp-677" value="" style="triangle;whiteSpace=wrap;html=1;rotation=-90;fillColor=none;strokeWidth=0.1;movable=1;resizable=1;rotatable=1;deletable=1;editable=1;locked=0;connectable=1;container=0;strokeColor=#000000;" parent="BZf6F3fDbPlMnJJBv7aN-1" vertex="1">
          <mxGeometry y="15.000000000000007" width="3" height="3" as="geometry" />
        </mxCell>
        <mxCell id="5G7c4jUEA5Og9TPHIXhp-683" value="" style="ellipse;whiteSpace=wrap;html=1;strokeColor=#000000;fillColor=#bfbfbf;fontColor=#ffffff;movable=1;resizable=1;rotatable=1;deletable=1;editable=1;locked=0;connectable=1;container=0;strokeWidth=0.2;aspect=fixed;" parent="BZf6F3fDbPlMnJJBv7aN-1" vertex="1">
          <mxGeometry x="9.499999999999943" y="30.53478260869565" width="4" height="4" as="geometry" />
        </mxCell>
        <mxCell id="5G7c4jUEA5Og9TPHIXhp-684" value="" style="ellipse;whiteSpace=wrap;html=1;strokeColor=none;fillColor=#60a917;fontColor=#ffffff;movable=1;resizable=1;rotatable=1;deletable=1;editable=1;locked=0;connectable=1;container=0;aspect=fixed;" parent="BZf6F3fDbPlMnJJBv7aN-1" vertex="1">
          <mxGeometry x="12" y="12.00304347826087" width="3" height="3" as="geometry" />
        </mxCell>
        <mxCell id="5G7c4jUEA5Og9TPHIXhp-685" value="" style="ellipse;whiteSpace=wrap;html=1;strokeColor=none;fillColor=#A20025;fontColor=#ffffff;movable=1;resizable=1;rotatable=1;deletable=1;editable=1;locked=0;connectable=1;container=0;aspect=fixed;" parent="BZf6F3fDbPlMnJJBv7aN-1" vertex="1">
          <mxGeometry x="8" y="15.00304347826087" width="3" height="3" as="geometry" />
        </mxCell>
        <mxCell id="5G7c4jUEA5Og9TPHIXhp-686" value="" style="ellipse;whiteSpace=wrap;html=1;strokeColor=none;fillColor=#A20025;fontColor=#ffffff;movable=1;resizable=1;rotatable=1;deletable=1;editable=1;locked=0;connectable=1;container=0;aspect=fixed;" parent="BZf6F3fDbPlMnJJBv7aN-1" vertex="1">
          <mxGeometry x="8" y="9.00304347826087" width="3" height="3" as="geometry" />
        </mxCell>
        <mxCell id="5G7c4jUEA5Og9TPHIXhp-687" value="" style="ellipse;whiteSpace=wrap;html=1;strokeColor=none;fillColor=#60a917;fontColor=#ffffff;movable=1;resizable=1;rotatable=1;deletable=1;editable=1;locked=0;connectable=1;container=0;aspect=fixed;" parent="BZf6F3fDbPlMnJJBv7aN-1" vertex="1">
          <mxGeometry x="12" y="6.003043478260867" width="3" height="3" as="geometry" />
        </mxCell>
        <mxCell id="5G7c4jUEA5Og9TPHIXhp-688" value="" style="ellipse;whiteSpace=wrap;html=1;strokeColor=none;fillColor=#0050EF;fontColor=#ffffff;movable=1;resizable=1;rotatable=1;deletable=1;editable=1;locked=0;connectable=1;container=0;aspect=fixed;" parent="BZf6F3fDbPlMnJJBv7aN-1" vertex="1">
          <mxGeometry x="8" y="3.0030434782608673" width="3" height="3" as="geometry" />
        </mxCell>
        <mxCell id="5G7c4jUEA5Og9TPHIXhp-689" value="" style="ellipse;whiteSpace=wrap;html=1;strokeColor=none;fillColor=#60a917;fontColor=#ffffff;movable=1;resizable=1;rotatable=1;deletable=1;editable=1;locked=0;connectable=1;container=0;aspect=fixed;" parent="BZf6F3fDbPlMnJJBv7aN-1" vertex="1">
          <mxGeometry x="12" y="0.0030434782608672606" width="3" height="3" as="geometry" />
        </mxCell>
        <mxCell id="5G7c4jUEA5Og9TPHIXhp-697" value="" style="sketch=0;html=1;strokeColor=#000000;shadow=0;fillColor=none;verticalAlign=top;labelPosition=center;verticalLabelPosition=bottom;shape=mxgraph.gcp2.a7_power;gradientColor=none;movable=1;resizable=1;rotatable=1;deletable=1;editable=1;locked=0;connectable=1;container=0;strokeWidth=0.1;" parent="BZf6F3fDbPlMnJJBv7aN-1" vertex="1">
          <mxGeometry x="4" width="3" height="3" as="geometry" />
        </mxCell>
        <mxCell id="5G7c4jUEA5Og9TPHIXhp-698" value="" style="sketch=0;pointerEvents=1;shadow=0;dashed=0;html=1;strokeColor=none;fillColor=#000000;labelPosition=center;verticalLabelPosition=bottom;verticalAlign=top;align=center;outlineConnect=0;shape=mxgraph.vvd.infrastructure;movable=1;resizable=1;rotatable=1;deletable=1;editable=1;locked=0;connectable=1;container=0;" parent="BZf6F3fDbPlMnJJBv7aN-1" vertex="1">
          <mxGeometry x="4" y="12" width="3" height="3" as="geometry" />
        </mxCell>
        <mxCell id="5G7c4jUEA5Og9TPHIXhp-699" value="" style="sketch=0;pointerEvents=1;shadow=0;dashed=0;html=1;strokeColor=none;fillColor=#000000;labelPosition=center;verticalLabelPosition=bottom;verticalAlign=top;align=center;outlineConnect=0;shape=mxgraph.vvd.infrastructure;movable=1;resizable=1;rotatable=1;deletable=1;editable=1;locked=0;connectable=1;container=0;" parent="BZf6F3fDbPlMnJJBv7aN-1" vertex="1">
          <mxGeometry x="4" y="18" width="3" height="3" as="geometry" />
        </mxCell>
        <mxCell id="5G7c4jUEA5Og9TPHIXhp-700" value="" style="sketch=0;pointerEvents=1;shadow=0;dashed=0;html=1;strokeColor=none;labelPosition=center;verticalLabelPosition=bottom;verticalAlign=top;align=center;fillColor=#000000;shape=mxgraph.mscae.intune.device_health;" parent="BZf6F3fDbPlMnJJBv7aN-1" vertex="1">
          <mxGeometry y="9.004347826086963" width="3" height="3" as="geometry" />
        </mxCell>
      </root>
    </mxGraphModel>
  </diagram>
</mxfile>
